<svg width="160" height="160" viewBox="0 0 160 160" fill="none" xmlns="http://www.w3.org/2000/svg">
<path fill-rule="evenodd" clip-rule="evenodd" d="M59.8962 100.416C59.8962 89.3433 50.8875 80.3333 39.8132 80.3333C28.739 80.3333 19.729 89.3433 19.729 100.416C19.729 111.49 28.739 120.5 39.8132 120.5C50.8875 120.5 59.8962 111.49 59.8962 100.416Z" fill="#0CB5C3"/>
<path fill-rule="evenodd" clip-rule="evenodd" d="M39.812 120.5C20.5859 120.5 5 136.086 5 155.312C5 157.902 7.09839 160 9.6875 160H69.9377C72.5269 160 74.6252 157.902 74.6252 155.312C74.6252 136.086 59.0393 120.5 39.812 120.5Z" fill="#0CB5C3"/>
<path fill-rule="evenodd" clip-rule="evenodd" d="M120.146 80.3333C109.072 80.3333 100.062 89.3433 100.062 100.416C100.062 111.49 109.072 120.5 120.146 120.5C131.221 120.5 140.229 111.49 140.229 100.416C140.229 89.3433 131.221 80.3333 120.146 80.3333Z" fill="#0CB5C3"/>
<path fill-rule="evenodd" clip-rule="evenodd" d="M120.146 120.5C100.92 120.5 85.3333 136.086 85.3333 155.312C85.3333 157.902 87.4329 160 90.0208 160H150.271C152.86 160 154.958 157.902 154.958 155.312C154.958 136.086 139.373 120.5 120.146 120.5Z" fill="#0CB5C3"/>
<path fill-rule="evenodd" clip-rule="evenodd" d="M120.146 69.6252C128.268 69.6252 134.875 63.0176 134.875 54.8962V14.729C134.875 6.52222 128.217 0 120.146 0H39.8132C31.6003 0 25.083 6.66382 25.083 14.729V54.8962C25.083 63.0176 31.6907 69.6252 39.8132 69.6252H63.3203L75.7874 94.5581C76.5808 96.1462 78.2043 97.1497 79.9792 97.1497C81.7554 97.1497 83.3777 96.1462 84.1724 94.5581L96.6382 69.6252H120.146ZM90.0208 20.083C92.6086 20.083 94.7083 22.1838 94.7083 24.7705C94.7083 27.3584 92.6086 29.458 90.0208 29.458C87.4341 29.458 85.3333 27.3584 85.3333 24.7705C85.3333 22.1838 87.4341 20.083 90.0208 20.083ZM69.9377 20.083C72.5256 20.083 74.6252 22.1838 74.6252 24.7705C74.6252 27.3584 72.5256 29.458 69.9377 29.458C67.3499 29.458 65.2502 27.3584 65.2502 24.7705C65.2502 22.1838 67.3499 20.083 69.9377 20.083ZM79.9792 52.052C72.6147 52.052 65.5811 48.5352 61.1658 42.6453C59.613 40.5737 60.0342 37.6355 62.1057 36.0828C64.1772 34.53 67.1155 34.95 68.667 37.0215C71.322 40.5627 75.5505 42.677 79.9792 42.677C84.408 42.677 88.6365 40.5627 91.2915 37.0215C92.8442 34.95 95.7825 34.5288 97.854 36.0828C99.9255 37.6355 100.345 40.5737 98.7927 42.6453C94.3774 48.5352 87.3438 52.052 79.9792 52.052Z" fill="#0CB5C3"/>
</svg>
