<svg width="160" height="160" viewBox="0 0 160 160" fill="none" xmlns="http://www.w3.org/2000/svg">
<g clip-path="url(#clip0)">
<path d="M137.396 150.59L74.4664 117.27C72.8264 116.4 70.8264 116.52 69.2764 117.57L21.1564 150.89C19.3564 152.14 18.5764 154.41 19.2364 156.5C19.8764 158.57 21.8164 160 23.9964 160H135.046C137.336 160 139.346 158.44 139.896 156.2C140.456 153.97 139.416 151.66 137.396 150.59Z" fill="#F5AA16"/>
<path d="M158.457 141.09L143.657 74.4596C143.297 72.8296 142.147 71.4996 140.597 70.8896C139.037 70.2796 137.287 70.4896 135.927 71.4296L87.7966 104.75C86.3566 105.75 85.5466 107.42 85.6566 109.15C85.7566 110.9 86.7666 112.46 88.3066 113.27L151.227 146.59C151.967 146.98 152.767 147.18 153.567 147.18C154.637 147.18 155.707 146.84 156.597 146.15C158.147 144.97 158.877 143 158.457 141.09Z" fill="#F5AA16"/>
<path d="M123.637 63.51C122.977 61.42 121.047 60 118.857 60H73.2166C64.9166 75.03 52.6366 89.4 47.5866 95.02C44.7466 98.18 40.6766 100 36.4266 100C32.1766 100 28.1066 98.18 25.2666 95.02C23.3166 92.85 20.2966 89.38 16.8366 85.08L4.73659 139.54C4.29659 141.55 5.12659 143.62 6.82659 144.77C7.66659 145.34 8.64659 145.62 9.61659 145.62C10.6166 145.62 11.6066 145.33 12.4666 144.73L121.697 69.1C123.507 67.87 124.277 65.6 123.637 63.51Z" fill="#F5AA16"/>
<path d="M36.4267 0C17.1267 0 1.42673 15.7 1.42673 35C1.42673 52.96 29.5067 84.77 32.7067 88.34C33.6567 89.39 35.0067 90 36.4267 90C37.8467 90 39.1967 89.39 40.1467 88.34C43.3467 84.77 71.4267 52.96 71.4267 35C71.4267 15.7 55.7267 0 36.4267 0ZM36.4267 50C28.1467 50 21.4267 43.28 21.4267 35C21.4267 26.72 28.1467 20 36.4267 20C44.7067 20 51.4267 26.72 51.4267 35C51.4267 43.28 44.7067 50 36.4267 50Z" fill="#F5AA16"/>
</g>
<defs>
<clipPath id="clip0">
<rect width="160" height="160" fill="white"/>
</clipPath>
</defs>
</svg>
