<svg width="160" height="160" viewBox="0 0 160 160" fill="none" xmlns="http://www.w3.org/2000/svg">
<path d="M141.912 5.00732H18.0963C8.11596 5.00732 0 13.1206 0 23.1128V136.907C0 146.887 8.11596 154.992 18.0963 154.992H141.912C151.892 154.992 159.999 146.887 159.999 136.907V23.1128C160 13.1206 151.893 5.00732 141.912 5.00732ZM103.464 31.9336C113.116 31.9336 120.943 39.7614 120.943 49.4124C120.943 59.0634 113.115 66.8912 103.464 66.8912C93.8099 66.8912 85.9853 59.0634 85.9853 49.4124C85.9853 39.7614 93.8099 31.9336 103.464 31.9336ZM136.237 138.264H79.9984H26.2653C21.438 138.264 19.2881 134.772 21.4642 130.463L51.461 71.0485C53.6345 66.7401 57.7768 66.3556 60.7103 70.1889L90.8732 109.607C93.8067 113.441 98.934 113.767 102.328 110.332L109.707 102.86C113.097 99.4252 118.094 99.8504 120.861 103.804L139.969 131.097C142.731 135.057 141.064 138.264 136.237 138.264Z" fill="#EB5D5E"/>
</svg>
