<svg width="125" height="33" viewBox="0 0 125 33" fill="none" xmlns="http://www.w3.org/2000/svg">
<path d="M17.1387 16.7628C17.1096 13.7294 19.6191 12.2563 19.7355 12.1864C18.3149 10.1136 16.1082 9.82833 15.3338 9.80504C13.4823 9.6129 11.6889 10.9113 10.7457 10.9113C9.78502 10.9113 8.32941 9.82251 6.76901 9.85162C4.75445 9.88656 2.87381 11.051 1.83742 12.856C-0.293584 16.5474 1.29594 21.9681 3.3396 24.955C4.36435 26.4164 5.55794 28.0467 7.11835 27.9884C8.64383 27.9244 9.21442 27.0161 11.0601 27.0161C12.8884 27.0161 13.424 27.9884 15.0194 27.9535C16.6613 27.9244 17.6919 26.4863 18.6758 25.0132C19.8578 23.3363 20.3294 21.6886 20.3527 21.6071C20.3178 21.6013 17.1678 20.396 17.1387 16.7628Z" fill="black"/>
<path d="M14.1285 7.84862C14.9495 6.81805 15.5143 5.42067 15.3571 4C14.1693 4.0524 12.6788 4.82096 11.8229 5.82824C11.0659 6.71325 10.3847 8.16885 10.5594 9.5313C11.8986 9.63028 13.2668 8.85589 14.1285 7.84862Z" fill="black"/>
<path d="M41.0696 13.0435L36.3527 27.7002H38.7863L40.092 23.3934H44.85L46.2172 27.7002H48.7192L43.9818 13.0435H41.0696V13.0435ZM40.5022 21.5886L41.719 17.7604C42.0403 16.5436 42.2728 15.6275 42.4163 14.9986H42.4573C42.8197 16.4479 43.0658 17.3707 43.1956 17.7604L44.433 21.5886H40.5022Z" fill="black"/>
<path d="M56.4851 16.9126C54.8923 16.9126 53.7028 17.5415 52.9235 18.8062H52.8756L52.7457 17.1314H50.6812C50.7359 18.3208 50.7701 19.483 50.7701 20.611V32.0068H53.1217V26.4422H53.1627C53.7712 27.4403 54.7692 27.9393 56.1638 27.9393C57.449 27.9393 58.5291 27.4744 59.4041 26.5516C60.3749 25.5056 60.8602 24.0837 60.8602 22.2926C60.8602 20.6862 60.4432 19.3873 59.6092 18.4029C58.7752 17.4048 57.7293 16.9126 56.4851 16.9126ZM57.7224 25.0681C57.2302 25.7517 56.5398 26.0867 55.6579 26.0867C54.906 26.0867 54.2907 25.8269 53.819 25.2937C53.3473 24.7673 53.1149 24.1179 53.1149 23.3454V21.5817C53.1149 21.3971 53.1491 21.1578 53.2243 20.8639C53.3678 20.2418 53.6754 19.7359 54.1471 19.3531C54.612 18.9703 55.1452 18.7789 55.7263 18.7789C56.5808 18.7789 57.2644 19.1275 57.7703 19.8248C58.2352 20.4947 58.4676 21.3424 58.4676 22.3678C58.4676 23.489 58.2215 24.3845 57.7224 25.0681Z" fill="black"/>
<path d="M68.6398 16.9126C67.0401 16.9126 65.8575 17.5415 65.0781 18.8062H65.0303L64.9004 17.1314H62.8359C62.8906 18.3208 62.9248 19.483 62.9248 20.611V32.0068H65.2696V26.4422H65.3106C65.919 27.4403 66.9171 27.9393 68.3116 27.9393C69.6037 27.9393 70.6838 27.4744 71.552 26.5516C72.5227 25.5056 73.0081 24.0837 73.0081 22.2926C73.0081 20.6862 72.5911 19.3873 71.7571 18.4029C70.9299 17.4048 69.884 16.9126 68.6398 16.9126ZM69.8771 25.0681C69.3849 25.7517 68.6945 26.0867 67.8126 26.0867C67.0538 26.0867 66.4454 25.8269 65.9737 25.2937C65.502 24.7673 65.2696 24.1179 65.2696 23.3454V21.5817C65.2696 21.3971 65.3037 21.1578 65.3789 20.8639C65.5225 20.2418 65.8301 19.7359 66.3018 19.3531C66.7735 18.9703 67.2999 18.7789 67.881 18.7789C68.7355 18.7789 69.4191 19.1275 69.925 19.8248C70.3898 20.4947 70.6223 21.3424 70.6223 22.3678C70.6223 23.489 70.3693 24.3845 69.8771 25.0681Z" fill="black"/>
<path d="M82.9273 19.2644C81.8951 18.8542 81.1841 18.4782 80.7944 18.1296C80.3433 17.7536 80.1245 17.275 80.1245 16.694C80.1245 16.1744 80.3227 15.7301 80.7124 15.3678C81.1773 14.9644 81.8199 14.7593 82.647 14.7593C83.693 14.7593 84.6295 14.9849 85.4499 15.4361L86.0378 13.522C85.1559 13.0571 84.0484 12.8247 82.7154 12.8247C81.2183 12.8247 80.022 13.2075 79.1264 13.98C78.2241 14.7457 77.7797 15.7369 77.7797 16.9401C77.7797 18.7858 79.0581 20.1872 81.6285 21.1443C82.5718 21.4929 83.2486 21.8689 83.652 22.2791C84.0553 22.6824 84.2604 23.1883 84.2604 23.7831C84.2604 24.453 84.0143 24.9862 83.5221 25.3827C83.023 25.7792 82.3326 25.9775 81.4439 25.9775C80.2134 25.9775 79.0786 25.6698 78.0463 25.0409L77.4994 26.996C78.4565 27.6045 79.7212 27.9052 81.3003 27.9052C83.0094 27.9052 84.3356 27.4814 85.2926 26.6201C86.1608 25.8339 86.5983 24.8221 86.5983 23.578C86.5983 22.5662 86.2975 21.7185 85.7096 21.0349C85.1149 20.365 84.1852 19.7702 82.9273 19.2644Z" fill="black"/>
<path d="M91.7733 14.4995L89.4695 15.1968V17.1314H87.9245V18.8952H89.4695V24.2205C89.4695 25.5536 89.7293 26.5038 90.2557 27.0712C90.7752 27.6386 91.4998 27.9189 92.4296 27.9189C93.1815 27.9189 93.7968 27.83 94.2548 27.6591L94.1933 25.8749C93.9198 25.9432 93.5712 25.9842 93.1542 25.9842C92.2381 25.9842 91.7801 25.3348 91.7801 24.0291V18.8952H94.3642V17.1314H91.7801V14.4995H91.7733Z" fill="black"/>
<path d="M100.947 16.9126C99.3409 16.9126 98.0557 17.4321 97.1123 18.4781C96.1621 19.5172 95.6904 20.8639 95.6904 22.4977C95.6904 24.0632 96.1484 25.3621 97.0713 26.3875C97.9942 27.4198 99.2247 27.9325 100.777 27.9325C102.383 27.9325 103.675 27.3992 104.646 26.326C105.575 25.28 106.033 23.947 106.033 22.3268C106.033 20.7477 105.582 19.4556 104.687 18.4576C103.75 17.4253 102.499 16.9126 100.947 16.9126ZM102.95 24.9314C102.445 25.7928 101.74 26.2166 100.845 26.2166C99.9288 26.2166 99.2179 25.7928 98.712 24.9519C98.2881 24.2546 98.0831 23.4206 98.0831 22.443C98.0831 21.4381 98.2881 20.5904 98.712 19.8932C99.2042 19.0523 99.922 18.6285 100.865 18.6285C101.775 18.6285 102.479 19.0523 102.971 19.8932C103.395 20.5904 103.6 21.4245 103.6 22.402C103.6 23.3796 103.388 24.2204 102.95 24.9314Z" fill="black"/>
<path d="M111.386 17.48C110.853 17.897 110.456 18.4576 110.21 19.1549H110.149L110.06 17.1314H108.016C108.071 18.1294 108.105 19.2437 108.105 20.4606L108.084 27.7H110.429V22.1559C110.429 21.3151 110.627 20.6178 111.017 20.0709C111.468 19.4488 112.111 19.1343 112.931 19.1343C113.191 19.1343 113.437 19.1549 113.669 19.1959V16.9536C113.499 16.9263 113.3 16.9126 113.082 16.9126C112.473 16.9126 111.906 17.104 111.386 17.48Z" fill="black"/>
<path d="M124.17 21.9167C124.17 20.5973 123.862 19.4898 123.24 18.5875C122.454 17.4595 121.299 16.8921 119.781 16.8921C118.229 16.8921 116.999 17.4595 116.089 18.5875C115.221 19.6471 114.784 20.9733 114.784 22.5661C114.784 24.1863 115.255 25.4851 116.185 26.449C117.122 27.4129 118.407 27.8983 120.041 27.8983C121.408 27.8983 122.584 27.6795 123.589 27.242L123.22 25.6082C122.365 25.9431 121.415 26.1072 120.369 26.1072C119.426 26.1072 118.653 25.8611 118.065 25.3689C117.416 24.8152 117.074 24.0222 117.047 22.9763H124.088C124.142 22.6891 124.17 22.3337 124.17 21.9167ZM117.04 21.3014C117.108 20.5904 117.34 19.982 117.73 19.4762C118.209 18.8404 118.831 18.5191 119.596 18.5191C120.437 18.5191 121.059 18.8472 121.47 19.4967C121.791 20.0025 121.941 20.6041 121.928 21.3014H117.04V21.3014Z" fill="black"/>
<path d="M43.1478 4.14952C43.1478 1.83891 42.1018 0.526367 39.8869 0.526367H37.2277V7.8137H39.8869C42.0882 7.8137 43.1478 6.46698 43.1478 4.14952ZM38.6701 6.63105V1.70218H39.6955C41.138 1.70218 41.6643 2.66608 41.6643 4.17687C41.6643 6.02263 40.9124 6.63105 39.6955 6.63105H38.6701Z" fill="black"/>
<path d="M45.7934 2.14648H44.392V7.81365H45.7934V2.14648Z" fill="black"/>
<path d="M45.0893 1.47661C45.5268 1.47661 45.8823 1.17582 45.8823 0.738304C45.8823 0.30079 45.5268 0 45.0893 0C44.6586 0 44.2963 0.307627 44.2963 0.74514C44.2963 1.18265 44.6586 1.47661 45.0893 1.47661Z" fill="black"/>
<path d="M51.734 6.0636C51.734 5.01767 50.9684 4.66219 49.9293 4.47078C49.2798 4.35456 48.4663 4.25886 48.4663 3.69829C48.4663 3.28129 48.8218 3.02835 49.3687 3.02835C50.0523 3.02835 50.2847 3.42485 50.3189 3.78033H51.5631C51.5631 2.72756 50.7428 2.05078 49.396 2.05078C48.2065 2.05078 47.1264 2.57716 47.1264 3.83502C47.1264 4.88095 47.9468 5.26377 48.9722 5.47569C49.6968 5.61925 50.3736 5.70128 50.3736 6.24818C50.3736 6.61733 50.066 6.93179 49.4029 6.93179C48.8013 6.93179 48.439 6.64467 48.3775 6.22767H47.0171C47.0171 7.23942 47.8647 7.92303 49.3277 7.92303C50.818 7.91619 51.734 7.22574 51.734 6.0636Z" fill="black"/>
<path d="M54.3727 6.99331H54.4343C54.7145 7.52653 55.2751 7.88201 56.0271 7.88201C57.3123 7.88201 58.1873 6.91812 58.1873 5.20908V4.73055C58.1873 3.01468 57.3123 2.07129 56.0544 2.07129C55.2819 2.07129 54.7009 2.44044 54.4138 2.98733H54.3522V2.14649H52.9645V9.69359H54.3727V6.99331ZM54.3659 4.77157C54.3659 3.78716 54.8444 3.19242 55.5759 3.19242C56.3005 3.19242 56.7449 3.75982 56.7449 4.7784V5.15439C56.7449 6.21399 56.2732 6.76772 55.5896 6.76772C54.8444 6.76772 54.3591 6.1593 54.3591 5.15439V4.77157H54.3659Z" fill="black"/>
<path d="M64.4287 5.16806V4.75106C64.4287 3.18558 63.5058 2.04395 61.8378 2.04395C60.163 2.04395 59.2401 3.19242 59.2401 4.75789V5.1749C59.2401 6.82241 60.163 7.91619 61.8378 7.91619C63.5127 7.91619 64.4287 6.82241 64.4287 5.16806ZM63.0068 5.18857C63.0068 6.08411 62.6513 6.81557 61.8378 6.81557C61.0175 6.81557 60.662 6.07727 60.662 5.18857V4.75106C60.662 3.83502 61.0243 3.13089 61.8378 3.13089C62.6513 3.13089 63.0068 3.82818 63.0068 4.75106V5.18857Z" fill="black"/>
<path d="M67.1085 4.49129C67.1085 3.77349 67.505 3.25394 68.2296 3.25394C68.8312 3.25394 69.3371 3.60259 69.3371 4.47078V7.81365H70.7453V4.16315C70.7453 2.77541 69.9386 2.05078 68.7833 2.05078C67.8399 2.05078 67.3204 2.57716 67.1358 2.96682H67.0743V2.14649H65.7071V7.81365H67.1085V4.49129V4.49129Z" fill="black"/>
<path d="M72.9124 0C72.4817 0 72.1194 0.307627 72.1194 0.74514C72.1194 1.18265 72.4817 1.48344 72.9124 1.48344C73.3499 1.48344 73.7054 1.18265 73.7054 0.74514C73.7054 0.307627 73.3499 0 72.9124 0Z" fill="black"/>
<path d="M73.6097 2.14648H72.2082V7.81365H73.6097V2.14648Z" fill="black"/>
<path d="M80.4184 5.22281V4.72377C80.4184 2.99423 79.5503 2.07135 78.2582 2.07135C77.5131 2.07135 76.8773 2.4405 76.6312 2.96688H76.5697V0.136719H75.1615V7.81371H76.5492V6.93868H76.6039C76.8842 7.51976 77.4516 7.88891 78.2514 7.88891C79.5639 7.88891 80.4184 6.91818 80.4184 5.22281ZM76.5629 5.16812V4.7853C76.5629 3.73937 77.0551 3.19931 77.8139 3.19931C78.5043 3.19931 78.976 3.7462 78.976 4.7853V5.17496C78.976 6.21405 78.4975 6.76778 77.8139 6.76778C77.0482 6.76778 76.5629 6.21405 76.5629 5.16812Z" fill="black"/>
<path d="M83.1529 0.136719H81.7447V7.81371H83.1529V0.136719Z" fill="black"/>
<path d="M89.4217 6.10462H88.116C87.9998 6.56264 87.6033 6.84292 87.0427 6.84292C86.3249 6.84292 85.8395 6.29603 85.8395 5.44151V5.28428H89.4695V4.72371C89.4695 3.09671 88.5125 2.04395 86.9675 2.04395C85.4772 2.04395 84.4586 3.02835 84.4586 4.68953V5.20908C84.4586 6.94546 85.4704 7.91619 87.029 7.91619C88.5535 7.91619 89.2918 7.01382 89.4217 6.10462ZM85.8464 4.38191C85.8464 3.65728 86.2975 3.09671 86.988 3.09671C87.6716 3.09671 88.116 3.65044 88.116 4.38191V4.39558H85.8464V4.38191Z" fill="black"/>
<path d="M97.7276 6.10462H96.4219C96.3057 6.56264 95.9092 6.84292 95.3486 6.84292C94.6308 6.84292 94.1454 6.29603 94.1454 5.44151V5.28428H97.7754V4.72371C97.7754 3.09671 96.8184 2.04395 95.2734 2.04395C93.7831 2.04395 92.7645 3.02835 92.7645 4.68953V5.20908C92.7645 6.94546 93.7763 7.91619 95.3349 7.91619C96.8594 7.91619 97.5977 7.01382 97.7276 6.10462ZM94.1523 4.38191C94.1523 3.65728 94.6035 3.09671 95.2939 3.09671C95.9775 3.09671 96.4219 3.65044 96.4219 4.38191V4.39558H94.1523V4.38191V4.38191Z" fill="black"/>
<path d="M100.455 4.49129C100.455 3.77349 100.852 3.25394 101.576 3.25394C102.178 3.25394 102.684 3.60259 102.684 4.47078V7.81365H104.085V4.16315C104.085 2.77541 103.279 2.05078 102.123 2.05078C101.18 2.05078 100.66 2.57716 100.476 2.96682H100.414V2.14649H99.047V7.81365H100.448V4.49129H100.455Z" fill="black"/>
</svg>
