<svg width="32" height="32" viewBox="0 0 32 32" fill="none" xmlns="http://www.w3.org/2000/svg">
<g clip-path="url(#clip0)">
<path d="M15.993 19.0824L27.9646 7.11128C28.2935 6.78166 28.7332 6.60032 29.202 6.60032C29.671 6.60032 30.1105 6.78166 30.4398 7.11128L31.4883 8.16026C31.8182 8.48936 31.9998 8.9293 31.9998 9.39811C31.9998 9.86692 31.8182 10.3063 31.4883 10.6357L17.235 24.8892C16.9046 25.2199 16.4631 25.401 15.9938 25.3997C15.5224 25.401 15.0814 25.2201 14.7507 24.8892L0.511238 10.649C0.181351 10.3196 -0.000242048 9.88019 -0.000242043 9.41112C-0.000242037 8.9423 0.181351 8.50289 0.511238 8.17327L1.55969 7.12455C2.2421 6.44215 3.35299 6.44215 4.03514 7.12455L15.993 19.0824Z" fill="#98A2B7"/>
</g>
<defs>
<clipPath id="clip0">
<rect width="32" height="32" fill="white"/>
</clipPath>
</defs>
</svg>
