<svg width="72" height="72" viewBox="0 0 72 72" fill="none" xmlns="http://www.w3.org/2000/svg">
<path d="M0 0H72V72H25C11.1929 72 0 60.8071 0 47V0Z" fill="#088893"/>
<g clip-path="url(#clip0_147_141)">
<path d="M47.4236 34.1177C47.3726 33.9957 47.2996 33.8847 47.2066 33.7917L44.2076 30.7927C43.8166 30.4027 43.1846 30.4027 42.7936 30.7927C42.4027 31.1837 42.4027 31.8167 42.7936 32.2067L44.0866 33.4997H38.5006C37.9476 33.4997 37.5006 33.9477 37.5006 34.4997C37.5006 35.0517 37.9476 35.4996 38.5006 35.4996H44.0866L42.7936 36.7926C42.4026 37.1836 42.4026 37.8166 42.7936 38.2066C42.9886 38.4026 43.2446 38.4996 43.5006 38.4996C43.7566 38.4996 44.0126 38.4027 44.2076 38.2066L47.2066 35.2076C47.2996 35.1156 47.3726 35.0046 47.4236 34.8816C47.5246 34.6377 47.5246 34.3617 47.4236 34.1177Z" fill="#FBFCFE"/>
<path d="M40.5006 37.5C39.9476 37.5 39.5006 37.948 39.5006 38.5V43.5H35.5006V27.5C35.5006 27.059 35.2106 26.669 34.7876 26.542L31.3146 25.5H39.5006V30.5C39.5006 31.052 39.9476 31.5 40.5006 31.5C41.0536 31.5 41.5006 31.052 41.5006 30.5V24.5C41.5006 23.948 41.0536 23.5 40.5006 23.5H24.5006C24.4646 23.5 24.4326 23.515 24.3976 23.519C24.3506 23.524 24.3076 23.532 24.2626 23.543C24.1576 23.57 24.0626 23.611 23.9736 23.667C23.9516 23.681 23.9246 23.682 23.9036 23.698C23.8956 23.704 23.8926 23.715 23.8846 23.721C23.7756 23.807 23.6846 23.912 23.6186 24.037C23.6046 24.064 23.6016 24.093 23.5906 24.121C23.5586 24.197 23.5236 24.271 23.5116 24.355C23.5066 24.385 23.5156 24.413 23.5146 24.442C23.5136 24.462 23.5006 24.48 23.5006 24.5V44.5C23.5006 44.977 23.8376 45.387 24.3046 45.48L34.3046 47.48C34.3696 47.494 34.4356 47.5 34.5006 47.5C34.7296 47.5 34.9546 47.4211 35.1346 47.273C35.3656 47.083 35.5006 46.8 35.5006 46.5V45.5H40.5006C41.0536 45.5 41.5006 45.052 41.5006 44.5V38.5C41.5006 37.948 41.0536 37.5 40.5006 37.5Z" fill="#FBFCFE"/>
</g>
<defs>
<clipPath id="clip0_147_141">
<rect width="24" height="24" fill="white" transform="translate(23.5 23.5)"/>
</clipPath>
</defs>
</svg>
