<svg width="32" height="32" viewBox="0 0 32 32" fill="none" xmlns="http://www.w3.org/2000/svg">
<circle cx="16" cy="16" r="15.5" stroke="#E1E4E9"/>
<g clip-path="url(#clip0_1_2137)">
<path d="M23.3794 20.3853L18.9945 16.0005L23.3794 11.6156C24.2063 10.7886 24.2063 9.44784 23.3794 8.62092C22.5525 7.79399 21.2116 7.79399 20.3847 8.62092L15.9995 13.0058L11.6146 8.62056C10.7873 7.79363 9.44653 7.79363 8.61995 8.62056C7.79302 9.44784 7.79302 10.7886 8.61995 11.6152L13.0052 16.0001L8.61995 20.385C7.79302 21.2123 7.79302 22.5531 8.61995 23.3796C9.03395 23.7933 9.57535 23.9997 10.1175 23.9997C10.6592 23.9997 11.2013 23.7929 11.615 23.3796L15.9995 18.9951L20.3847 23.38C20.7987 23.7933 21.3401 24.0001 21.8822 24.0001C22.4243 24.0001 22.9661 23.7933 23.3797 23.38C24.2063 22.5531 24.2063 21.2126 23.3794 20.3853Z" fill="#FBFCFE"/>
</g>
<defs>
<clipPath id="clip0_1_2137">
<rect width="16" height="16" fill="white" transform="translate(8 8)"/>
</clipPath>
</defs>
</svg>
