<svg width="14" height="11" viewBox="0 0 14 11" fill="none" xmlns="http://www.w3.org/2000/svg">
<path fill-rule="evenodd" clip-rule="evenodd" d="M6.35142 0.129909C6.49568 0.0448573 6.66009 0 6.82756 0C6.99502 0 7.15943 0.044857 7.30369 0.129909C7.4478 0.214875 7.56655 0.336853 7.64762 0.483185M7.64762 0.483185L9.36784 3.58426L9.37079 3.58645L9.37483 3.58632L12.3383 2.26858L12.3398 2.26789C12.4998 2.19747 12.6762 2.17315 12.8493 2.1977C13.0223 2.22224 13.185 2.29465 13.3191 2.40677C13.4531 2.51889 13.5532 2.66625 13.6079 2.83221C13.6625 2.99773 13.6699 3.17518 13.6292 3.34465L13.6289 3.34601L12.1346 9.69249C12.1048 9.81497 12.0507 9.93024 11.9756 10.0315C11.9005 10.1327 11.8059 10.2179 11.6973 10.2819C11.5888 10.346 11.4685 10.3876 11.3435 10.4044C11.2186 10.4212 11.0916 10.4128 10.9699 10.3796L10.9681 10.3791C8.25679 9.62838 5.39246 9.62838 2.68116 10.3791L2.67931 10.3796C2.5577 10.4128 2.43067 10.4212 2.30573 10.4044C2.18079 10.3876 2.06049 10.346 1.95192 10.2819C1.84336 10.2179 1.74872 10.1327 1.67362 10.0315C1.59852 9.93023 1.54447 9.81497 1.51467 9.69249L1.51375 9.6887L0.0262043 3.34601L0.0257784 3.34424C-0.0147747 3.1749 -0.0073662 2.9976 0.0471919 2.83221C0.10194 2.66625 0.201987 2.51889 0.336042 2.40677C0.470097 2.29465 0.632822 2.22224 0.80585 2.1977C0.978878 2.17315 1.15532 2.19747 1.31527 2.26789L1.31684 2.26858L4.28012 3.58625L4.28432 3.58645L4.28727 3.58426L6.00749 0.483185C6.08856 0.336852 6.20731 0.214874 6.35142 0.129909" fill="#F5AA16"/>
</svg>
