<svg width="35" height="35" viewBox="0 0 35 35" fill="none" xmlns="http://www.w3.org/2000/svg">
<g clip-path="url(#clip0_98_731)">
<path d="M35 18.2707L34.9891 17.4616C34.9891 13.4269 34.5844 12.3007 30.8328 12.1914C29.3891 8.49565 26.5235 5.61999 22.8156 4.17669C22.7719 2.56938 22.5641 1.46504 21.8641 0.776191C21.0547 -0.0219968 19.9172 -0.0110626 18.3531 0.0108055C18.0469 0.0108055 17.7078 0.0217396 17.336 0.0217396C13.2016 0.0217396 12.261 0.66685 12.1625 4.17669C8.46564 5.61999 5.60001 8.48472 4.14532 12.1804C0.820325 12.2242 0.240637 12.6615 0.0765747 15.9746C0.0546997 16.3791 0.0328247 16.8493 -0.0109253 17.4835C1.22068e-05 17.9208 1.22068e-05 18.3145 0.0109497 18.6534C0.0437622 22.1523 0.5797 22.6006 4.13439 22.8849C5.58907 26.5369 8.52032 29.4782 12.1625 30.9324C12.3047 34.65 13.5953 34.8905 16.986 34.978L17.3578 34.9889C17.7078 34.978 18.025 34.978 18.3203 34.9671C21.525 34.9124 22.6844 34.5734 22.8047 30.9324C26.425 29.511 29.3453 26.5806 30.8109 22.9177C32.3313 22.874 33.436 22.6444 34.1578 21.9227C35.0219 21.0808 35.0109 19.8999 35 18.2707ZM22.761 27.2476C22.6516 26.3291 22.4 25.5966 21.886 25.0827C21.0219 24.2298 19.8297 24.2298 18.0359 24.2298H17.5547H16.8766C15.2031 24.2189 13.9891 24.2079 13.136 25.0608C12.6 25.5856 12.3484 26.3291 12.2391 27.2476C10.3688 26.2526 8.82658 24.7437 7.79845 22.9068C10.1828 22.7318 10.5328 21.9446 10.6969 18.8612C10.7188 18.4457 10.7406 17.9755 10.7844 17.3632C10.7844 16.904 10.7953 16.4994 10.7953 16.1386C10.8172 14.5531 10.8391 13.6019 10.15 12.913C9.62501 12.3882 8.95782 12.2351 7.79845 12.2023C8.81564 10.3216 10.3578 8.79087 12.2391 7.78494C12.5563 10.5403 13.9125 10.8027 17.15 10.8027C17.5438 10.8027 17.9156 10.8137 18.2547 10.8246C19.7641 10.8574 20.9453 10.8902 21.8203 10.0374C22.3235 9.54533 22.6188 8.84554 22.75 7.78494C24.6531 8.80181 26.2172 10.3654 27.2344 12.257C26.3484 12.3663 25.6594 12.5959 25.1563 13.1098C24.3031 13.9627 24.3141 15.1873 24.3141 17.0461V17.5709V18.0958C24.3031 19.9546 24.3031 21.1792 25.1563 22.032C25.6594 22.535 26.3375 22.7756 27.2125 22.874C26.1844 24.7218 24.6422 26.2417 22.761 27.2476Z" fill="#FBFCFE"/>
</g>
<defs>
<clipPath id="clip0_98_731">
<rect width="35" height="35" fill="white"/>
</clipPath>
</defs>
</svg>
