<svg width="59" height="49" viewBox="0 0 59 49" fill="none" xmlns="http://www.w3.org/2000/svg">
<path d="M54.1827 10.8179C53.1429 11.1018 52.5528 12.1521 52.8057 13.174L53.0024 13.8552C53.0586 13.9972 52.8619 14.1391 52.7495 14.0255L52.2717 13.6281C52.1593 13.543 52.075 13.4578 51.9626 13.3727C51.3162 12.805 50.4731 12.4075 49.7424 12.2088C48.9555 11.9818 48.0562 11.9818 47.1007 12.2656C46.5668 12.4075 46.0609 12.6062 45.6112 12.8333L45.1054 13.0888L42.548 3.43756C42.2389 2.24534 41.0023 1.5073 39.822 1.84794L27.2036 5.25426L27.316 4.74331C27.3722 4.48784 27.4003 4.26075 27.4003 4.00528C27.4003 3.66465 27.3441 3.32401 27.2317 2.95499C26.9226 1.81955 26.3324 0.996355 25.4331 0.485406C24.5338 -0.0255429 23.5221 -0.139085 22.3418 0.173162C21.9483 0.286706 21.5549 0.428636 21.2457 0.598953C20.9366 0.769269 20.6556 0.967969 20.4026 1.19506C20.1497 1.42215 19.953 1.67762 19.7844 1.98987C19.2504 2.86983 19.138 3.86335 19.4471 4.99879C19.5314 5.28265 19.6438 5.5949 19.8125 5.90714C19.953 6.13423 20.1497 6.38971 20.3464 6.61679L20.6837 7.0142L8.0091 10.4489C6.82877 10.7612 6.09809 12.0101 6.43533 13.2024L11.2972 31.5114C11.241 31.6533 11.1567 31.7952 11.0724 31.9371C10.8194 32.3629 10.5103 32.732 10.145 33.0726C9.77962 33.3848 9.35807 33.5835 8.88031 33.7255C7.8967 33.9809 7.0536 33.8958 6.35102 33.4132C5.62034 32.959 5.14257 32.2494 4.86154 31.2275C4.5805 30.1772 4.5524 29.2972 4.86154 28.5024C5.03015 28.0483 5.3674 27.4522 5.76084 27.3386C6.04187 27.2534 6.37911 27.1967 6.68825 27.2251C7.84048 27.2818 7.64377 25.8625 7.33463 25.1529C7.16601 24.7271 6.63205 24.0174 6.09808 23.7903C5.81705 23.6768 4.97395 23.5349 4.07465 23.9323C2.27604 24.7555 1.54537 25.7774 0.870888 26.9128C-0.0846222 28.5308 -0.225138 30.4327 0.308823 32.5333C0.505546 33.2713 0.758461 33.9242 1.0676 34.4919C1.37673 35.0596 1.74209 35.5706 2.13553 36.0247C2.55708 36.4789 3.03483 36.8763 3.56879 37.1886C5.17068 38.1821 6.96928 38.3808 8.99272 37.8414C9.52668 37.6995 10.0887 37.4724 10.6508 37.1602C11.0443 36.9047 11.4096 36.6492 11.7749 36.337C12.0279 36.1383 12.1965 35.8828 12.337 35.5989L14.9225 45.3921C15.2316 46.5843 16.4682 47.3224 17.6485 46.9818L30.3512 43.547L30.2107 44.2567C30.1545 44.5122 30.1264 44.7393 30.1264 44.9947C30.1264 45.3354 30.1826 45.676 30.295 46.045C30.6041 47.1805 31.1943 48.0036 32.0936 48.5146C32.9929 49.0255 34.0046 49.1391 35.1849 48.8268C35.5784 48.7133 35.9718 48.5714 36.281 48.4011C36.5901 48.2307 36.8711 48.032 37.1241 47.8049C37.377 47.5779 37.5737 47.3224 37.7423 47.0101C38.2763 46.1302 38.3887 45.1367 38.0796 44.0012C37.9953 43.7174 37.8829 43.4051 37.7142 43.0929C37.5737 42.8658 37.377 42.6103 37.1803 42.3832L36.7025 41.8439L49.4614 38.3808C50.6417 38.0685 51.3724 36.8195 51.0352 35.6273L48.7026 26.856L49.2366 26.8277C49.63 26.7993 50.0516 26.7425 50.4731 26.6006C51.4567 26.3167 52.2998 25.8909 52.9181 25.2664C53.5364 24.6419 53.986 23.9039 54.52 22.9104L54.8853 22.2859C54.9415 22.1723 55.1382 22.1723 55.1663 22.3143L55.2507 22.6549C55.5317 23.6768 56.5434 24.3297 57.5551 24.0742C58.5949 23.8187 59.2132 22.7401 58.9322 21.7182L56.4029 12.1805C56.2343 11.1586 55.1944 10.5625 54.1827 10.8179ZM19.8968 17.1764C20.234 16.3816 20.9085 15.7855 21.7516 15.5584C22.5947 15.3313 23.4659 15.4732 24.1404 16.0126C24.4776 16.2964 24.5338 17.0061 24.3652 17.2332C24.2809 17.3183 24.1966 17.4035 24.0842 17.4319C23.9436 17.4603 23.775 17.4319 23.6626 17.3467C23.213 17.0061 22.679 16.9209 22.145 17.0629C21.6111 17.2048 21.1895 17.5738 20.9647 18.0848C20.8523 18.3402 20.5432 18.4538 20.2902 18.3402C20.0373 18.2267 19.7 17.6306 19.8968 17.1764ZM35.9156 22.9672C36.3091 24.4716 36.5058 25.6071 36.4496 26.3735C36.3934 27.1683 36.1686 27.9063 35.747 28.6444C35.3536 29.3824 34.7353 30.0069 33.9203 30.5462C33.1334 31.0572 32.1498 31.483 30.9695 31.8236C29.7891 32.1358 28.7212 32.2778 27.8219 32.221C26.8945 32.1642 26.0233 31.9371 25.2645 31.5114C24.5619 31.1139 23.9998 30.5746 23.5502 29.9217C23.1286 29.2972 22.7352 28.2186 22.3137 26.6857L21.1052 22.144C20.768 20.895 21.4987 19.646 22.7352 19.3054C23.9718 18.9647 25.2083 19.7028 25.5455 20.9517L26.8383 25.8058C27.1474 26.9128 27.5409 27.6792 28.0467 28.0483C28.5245 28.474 29.1708 28.5592 30.0139 28.3321C30.8289 28.105 31.3629 27.7076 31.5877 27.1115C31.8126 26.5154 31.7844 25.6638 31.4753 24.5568L30.1826 19.7028C29.8453 18.4538 30.576 17.2048 31.8126 16.8642L31.925 16.8358C33.1615 16.4951 34.3981 17.2332 34.7353 18.4822L35.9156 22.9672ZM33.555 14.7636C33.4706 14.8487 33.3863 14.9339 33.2739 14.9623C33.1334 14.9907 32.9648 14.9623 32.8524 14.8771C32.4027 14.5365 31.8688 14.4513 31.3348 14.5933L31.2224 14.6217C30.6884 14.7636 30.2669 15.1326 30.0421 15.6436C29.9296 15.899 29.6205 16.0126 29.3676 15.899C29.1146 15.7855 28.8336 15.2178 28.9741 14.7352C29.2271 13.912 29.9858 13.3443 30.8289 13.1172L30.9414 13.0888C31.7845 12.8617 32.6276 13.0604 33.3301 13.543C33.7236 13.8268 33.7236 14.5365 33.555 14.7636ZM52.8338 20.8666C52.4403 21.6046 51.794 22.0872 50.8666 22.3427C49.9391 22.5981 49.1242 22.513 48.4497 22.0588C47.7471 21.633 47.2693 20.895 46.9883 19.8447C46.7073 18.8228 46.7635 17.9428 47.1569 17.1764C47.5223 16.4384 48.1686 15.9558 49.0961 15.7003C50.0235 15.4449 50.8385 15.5584 51.541 16.0126C52.2436 16.4384 52.7214 17.1764 53.0024 18.1983C53.2834 19.277 53.2272 20.1569 52.8338 20.8666Z" fill="#0CB5C3"/>
</svg>
