<svg width="45" height="45" viewBox="0 0 45 45" fill="none" xmlns="http://www.w3.org/2000/svg">
<g clip-path="url(#clip0_68_380)">
<path d="M38.6428 42.3534L20.9437 32.9822C20.4825 32.7375 19.92 32.7713 19.484 33.0666L5.95028 42.4378C5.44403 42.7894 5.22465 43.4278 5.41028 44.0156C5.59028 44.5978 6.1359 45 6.74903 45H37.9818C38.6259 45 39.1912 44.5613 39.3459 43.9313C39.5034 43.3041 39.2109 42.6544 38.6428 42.3534Z" fill="#FBFCFE"/>
<path d="M44.5659 39.6815L40.4034 20.9418C40.3022 20.4834 39.9788 20.1093 39.5428 19.9378C39.1041 19.7662 38.6119 19.8253 38.2294 20.0896L24.6928 29.4609C24.2878 29.7421 24.06 30.2118 24.0909 30.6984C24.1191 31.1906 24.4031 31.6293 24.8362 31.8571L42.5325 41.2284C42.7406 41.3381 42.9656 41.3943 43.1906 41.3943C43.4916 41.3943 43.7925 41.2987 44.0428 41.1047C44.4788 40.7728 44.6841 40.2187 44.5659 39.6815Z" fill="#FBFCFE"/>
<path d="M34.7728 17.8622C34.5872 17.2744 34.0444 16.875 33.4285 16.875H20.5922C18.2578 21.1022 14.8041 25.1438 13.3838 26.7244C12.585 27.6131 11.4403 28.125 10.245 28.125C9.0497 28.125 7.90502 27.6131 7.10627 26.7244C6.55783 26.1141 5.70845 25.1381 4.73533 23.9288L1.3322 39.2456C1.20845 39.8109 1.44189 40.3931 1.92002 40.7166C2.15627 40.8769 2.43189 40.9556 2.7047 40.9556C2.98595 40.9556 3.26439 40.8741 3.50627 40.7053L34.2272 19.4344C34.7363 19.0884 34.9528 18.45 34.7728 17.8622Z" fill="#FBFCFE"/>
<path d="M10.245 0C4.81687 0 0.401245 4.41563 0.401245 9.84375C0.401245 14.895 8.29875 23.8416 9.19874 24.8456C9.46593 25.1409 9.84562 25.3125 10.245 25.3125C10.6444 25.3125 11.0241 25.1409 11.2912 24.8456C12.1912 23.8416 20.0887 14.895 20.0887 9.84375C20.0887 4.41563 15.6731 0 10.245 0ZM10.245 14.0625C7.91624 14.0625 6.02625 12.1725 6.02625 9.84375C6.02625 7.515 7.91624 5.625 10.245 5.625C12.5737 5.625 14.4637 7.515 14.4637 9.84375C14.4637 12.1725 12.5737 14.0625 10.245 14.0625Z" fill="#FBFCFE"/>
</g>
<defs>
<clipPath id="clip0_68_380">
<rect width="45" height="45" fill="white"/>
</clipPath>
</defs>
</svg>
