<svg width="16" height="16" viewBox="0 0 16 16" fill="none" xmlns="http://www.w3.org/2000/svg">
<g clip-path="url(#clip0_90_351)">
<path d="M13.472 0H2.528C1.13422 0 0 1.13422 0 2.528V13.472C0 14.8658 1.13422 16 2.528 16H13.472C14.8662 16 16 14.8658 16 13.472V2.528C16 1.13422 14.8658 0 13.472 0ZM11.8236 6.47378L7.33911 10.9649C7.14667 11.1573 6.89111 11.2631 6.61956 11.2631C6.348 11.2631 6.09244 11.1573 5.9 10.9649L4.17689 9.24178C3.98489 9.04978 3.87911 8.79422 3.87911 8.52267C3.87911 8.25111 3.98489 7.99556 4.17689 7.80356C4.36889 7.61156 4.62444 7.50533 4.89644 7.50533C5.168 7.50533 5.42356 7.61111 5.61556 7.80356L6.61911 8.80711L10.3844 5.03556C10.5769 4.84311 10.832 4.73733 11.104 4.73733C11.3756 4.73733 11.6311 4.84311 11.8236 5.03511C12.22 5.43156 12.22 6.07733 11.8236 6.47378Z" fill="#FBFCFE"/>
</g>
<defs>
<clipPath id="clip0_90_351">
<rect width="16" height="16" fill="white"/>
</clipPath>
</defs>
</svg>
