<svg width="151" height="160" viewBox="0 0 151 160" fill="none" xmlns="http://www.w3.org/2000/svg">
<g clip-path="url(#clip0)">
<path d="M150.809 21.3845C150.759 9.4107 140.731 0.0145868 128.765 0.00627169C93.426 -0.0103586 58.0784 -0.00204346 22.7307 0.022902C11.2808 0.0312171 2.29214 7.60631 0.263243 18.8484C-1.08381 26.2904 2.73284 30.9386 10.3495 30.9968C18.515 31.055 26.6887 31.0134 35.2783 31.0134C35.4529 32.2191 35.6275 32.8843 35.6275 33.5412C35.6441 51.4188 35.5859 69.2881 35.7107 87.1656C35.7273 89.8597 34.1474 90.2006 32.2765 90.9074C15.6712 97.2353 6.1171 114.389 9.76744 131.161C13.6756 149.138 28.9837 160.48 47.2355 159.823C54.9103 159.549 61.6539 158.859 67.5493 153.005C71.6321 148.955 77.9183 150.278 82.949 154.734C90.6737 161.57 95.6711 161.619 103.296 154.942C109.566 149.446 115.528 149.371 121.714 155.05C125.897 158.892 130.711 161.678 135.933 158.809C142.352 155.292 149.162 151.517 150.776 143.168C150.884 142.628 150.892 142.062 150.892 141.513C150.892 101.468 150.992 61.4302 150.809 21.3845ZM9.77576 22.0747C8.66153 15.83 13.7254 9.87635 20.6021 9.18619C28.9172 8.35468 34.8542 13.402 35.1951 22.0747C26.5224 22.0747 18.1325 22.0747 9.77576 22.0747ZM43.5768 150.685C29.4909 150.46 17.592 138.32 17.8165 124.409C18.066 109.35 29.8734 97.6926 44.9737 97.6011C59.2342 97.518 71.0916 109.799 70.9253 124.509C70.759 139.651 58.9764 150.934 43.5768 150.685ZM88.9109 61.8044C88.7862 67.4255 85.2523 70.7765 79.6894 70.8929C73.8688 71.0176 68.0482 71.0176 62.236 70.8846C56.9143 70.7682 53.4884 67.2841 53.3554 61.9707C53.2473 57.5388 53.3304 53.1068 53.3304 48.6748C53.3388 48.6748 53.3388 48.6748 53.3471 48.6748C53.3471 44.3842 53.2806 40.0853 53.3637 35.7947C53.4718 30.2983 57.0057 26.7395 62.502 26.6563C68.1813 26.5648 73.8605 26.5732 79.5398 26.6563C85.1026 26.7311 88.7529 30.0239 88.8943 35.6367C89.1188 44.3509 89.1022 53.0818 88.9109 61.8044ZM103.23 26.5898C111.37 26.6729 119.519 26.6646 127.659 26.6147C130.678 26.5981 133.006 27.6292 133.139 30.8638C133.289 34.3728 130.811 35.5951 127.684 35.645C123.543 35.7032 119.403 35.6616 115.262 35.6616C115.262 35.6533 115.262 35.645 115.262 35.645C111.262 35.645 107.254 35.6699 103.255 35.6367C100.086 35.6117 97.6169 34.3062 97.7499 30.897C97.8746 27.7789 100.136 26.5565 103.23 26.5898ZM128.316 124.426C124.026 124.451 119.735 124.434 115.436 124.434C111.279 124.434 107.129 124.401 102.972 124.451C99.837 124.492 97.6834 123.079 97.7416 119.927C97.7915 117.017 99.862 115.662 102.822 115.678C111.27 115.72 119.718 115.703 128.167 115.712C131.06 115.712 133.114 116.892 133.147 119.994C133.181 123.045 131.252 124.409 128.316 124.426ZM128.316 106.59C124.026 106.615 119.735 106.598 115.436 106.598C111.279 106.598 107.129 106.565 102.972 106.615C99.837 106.656 97.6834 105.243 97.7416 102.091C97.7915 99.181 99.862 97.8256 102.822 97.8423C111.27 97.8838 119.718 97.8672 128.167 97.8755C131.06 97.8755 133.114 99.0563 133.147 102.158C133.181 105.209 131.252 106.573 128.316 106.59ZM128.316 88.7538C124.026 88.7787 119.735 88.7621 115.436 88.7621C111.279 88.7621 107.129 88.7289 102.972 88.7787C99.837 88.8203 97.6834 87.4068 97.7416 84.2553C97.7915 81.345 99.862 79.9896 102.822 80.0063C111.27 80.0479 119.718 80.0312 128.167 80.0395C131.06 80.0395 133.114 81.2203 133.147 84.3218C133.181 87.3735 131.252 88.7372 128.316 88.7538ZM128.316 70.9178C124.026 70.9428 119.735 70.9261 115.436 70.9261C111.279 70.9261 107.129 70.8929 102.972 70.9428C99.837 70.9843 97.6834 69.5708 97.7416 66.4193C97.7915 63.509 99.862 62.1537 102.822 62.1703C111.27 62.2119 119.718 62.1952 128.167 62.2035C131.06 62.2035 133.114 63.3843 133.147 66.4858C133.181 69.5375 131.252 70.9012 128.316 70.9178ZM133.147 49.0906C132.94 51.8263 131.152 53.2232 128.408 53.2481C124.126 53.2814 119.852 53.2565 115.569 53.2565C111.287 53.2565 107.013 53.2315 102.731 53.2648C99.7455 53.2897 97.8247 51.7847 97.7333 48.9243C97.6335 46.0056 99.6541 44.326 102.498 44.2927C111.195 44.1929 119.893 44.1763 128.582 44.3426C131.36 44.3925 133.38 46.014 133.147 49.0906Z" fill="#8773AE"/>
<path d="M51.4857 117.789C48.3343 120.882 45.0997 123.901 41.3329 127.485C39.6366 125.63 38.3062 124.034 36.8344 122.579C34.7473 120.525 32.3442 120.184 30.2655 122.379C28.2282 124.533 28.5608 126.952 30.623 129.006C33.076 131.443 35.637 133.771 38.1316 136.174C40.5845 138.535 42.971 138.46 45.3907 136.107C49.4568 132.149 53.5229 128.191 57.6389 124.283C59.9006 122.13 61.2061 119.785 58.67 117.141C56.1754 114.538 53.7474 115.569 51.4857 117.789Z" fill="#8773AE"/>
</g>
<defs>
<clipPath id="clip0">
<rect width="150.92" height="160" fill="white"/>
</clipPath>
</defs>
</svg>
