<svg width="45" height="45" viewBox="0 0 45 45" fill="none" xmlns="http://www.w3.org/2000/svg">
<path d="M39.9128 1.40833H5.0896C2.28261 1.40833 0 3.69019 0 6.50048V38.5051C0 41.3121 2.28261 43.5916 5.0896 43.5916H39.9127C42.7196 43.5916 44.9998 41.3121 44.9998 38.5051V6.50048C45 3.69019 42.7198 1.40833 39.9128 1.40833ZM29.0993 8.98133C31.8138 8.98133 34.0152 11.1829 34.0152 13.8972C34.0152 16.6116 31.8136 18.8132 29.0993 18.8132C26.384 18.8132 24.1834 16.6116 24.1834 13.8972C24.1834 11.1829 26.384 8.98133 29.0993 8.98133ZM38.3167 38.8868H22.4995H7.38712C6.02942 38.8868 5.42476 37.9045 6.03681 36.6926L14.4734 19.9824C15.0847 18.7707 16.2497 18.6625 17.0748 19.7406L25.5581 30.827C26.3831 31.9052 27.8252 31.997 28.7796 31.0309L30.855 28.9294C31.8087 27.9633 33.2138 28.0829 33.9921 29.1948L39.3661 36.8712C40.143 37.9847 39.6744 38.8868 38.3167 38.8868Z" fill="#FBFCFE"/>
</svg>
