<svg width="45" height="45" viewBox="0 0 45 45" fill="none" xmlns="http://www.w3.org/2000/svg">
<g clip-path="url(#clip0_68_1661)">
<path d="M44.9669 6.01445C44.952 2.64682 41.962 0.00416167 38.3942 0.00182304C27.857 -0.00285423 17.3174 -0.000515594 6.7777 0.00650031C3.36365 0.00883894 0.683492 2.13933 0.0785341 5.30117C-0.323118 7.39425 0.814897 8.70154 3.08597 8.71791C5.52068 8.73428 7.95787 8.72259 10.519 8.72259C10.5711 9.06169 10.6232 9.24878 10.6232 9.43353C10.6281 14.4616 10.6108 19.4873 10.6479 24.5154C10.6529 25.2731 10.1818 25.369 9.62398 25.5678C4.67275 27.3475 1.82399 32.1721 2.91242 36.8891C4.0777 41.9452 8.64216 45.1351 14.0843 44.9504C16.3727 44.8732 18.3835 44.6791 20.1413 43.0327C21.3587 41.8938 23.2331 42.2656 24.7331 43.5191C27.0364 45.4415 28.5264 45.4555 30.8 43.5776C32.6694 42.0318 34.4471 42.0107 36.2917 43.608C37.5388 44.6884 38.9744 45.4719 40.5314 44.6651C42.4454 43.6758 44.476 42.6141 44.957 40.2661C44.9892 40.1141 44.9917 39.9551 44.9917 39.8007C44.9917 28.5378 45.0215 17.2773 44.9669 6.01445ZM2.9149 6.20856C2.58266 4.45224 4.09258 2.77778 6.14299 2.58368C8.62233 2.34981 10.3926 3.76936 10.4942 6.20856C7.90828 6.20856 5.40663 6.20856 2.9149 6.20856ZM12.9934 42.3802C8.7934 42.3171 5.24547 38.9027 5.31241 34.9901C5.38679 30.7549 8.90745 27.4761 13.4099 27.4504C17.662 27.427 21.1975 30.8812 21.1479 35.0182C21.0984 39.2769 17.5851 42.4504 12.9934 42.3802ZM26.5107 17.3826C26.4736 18.9635 25.4198 19.9059 23.7612 19.9387C22.0256 19.9738 20.2901 19.9738 18.557 19.9363C16.9703 19.9036 15.9488 18.9237 15.9091 17.4293C15.8769 16.1828 15.9017 14.9363 15.9017 13.6898C15.9041 13.6898 15.9041 13.6898 15.9066 13.6898C15.9066 12.4831 15.8868 11.274 15.9116 10.0673C15.9438 8.52147 16.9975 7.52053 18.6364 7.49715C20.3298 7.47142 22.0231 7.47376 23.7165 7.49715C25.3752 7.51819 26.4636 8.44429 26.5058 10.0229C26.5727 12.4738 26.5678 14.9293 26.5107 17.3826ZM30.7802 7.47844C33.2074 7.50182 35.6372 7.49948 38.0644 7.48545C38.9644 7.48077 39.6587 7.77077 39.6983 8.68049C39.743 9.6674 39.0041 10.0112 38.0719 10.0252C36.8372 10.0416 35.6025 10.0299 34.3678 10.0299C34.3678 10.0275 34.3678 10.0252 34.3678 10.0252C33.1752 10.0252 31.9802 10.0322 30.7876 10.0229C29.843 10.0159 29.1066 9.64869 29.1463 8.68985C29.1835 7.81286 29.8578 7.46908 30.7802 7.47844ZM38.2603 34.9948C36.981 35.0018 35.7016 34.9971 34.4198 34.9971C33.1802 34.9971 31.943 34.9878 30.7033 35.0018C29.7686 35.0135 29.1264 34.616 29.1438 33.7296C29.1587 32.9111 29.776 32.5299 30.6587 32.5346C33.1777 32.5463 35.6967 32.5416 38.2157 32.5439C39.0785 32.5439 39.6909 32.876 39.7008 33.7483C39.7107 34.6066 39.1355 34.9901 38.2603 34.9948ZM38.2603 29.9784C36.981 29.9855 35.7016 29.9808 34.4198 29.9808C33.1802 29.9808 31.943 29.9714 30.7033 29.9855C29.7686 29.9971 29.1264 29.5996 29.1438 28.7132C29.1587 27.8947 29.776 27.5135 30.6587 27.5182C33.1777 27.5299 35.6967 27.5252 38.2157 27.5275C39.0785 27.5275 39.6909 27.8596 39.7008 28.7319C39.7107 29.5902 39.1355 29.9738 38.2603 29.9784ZM38.2603 24.9621C36.981 24.9691 35.7016 24.9644 34.4198 24.9644C33.1802 24.9644 31.943 24.955 30.7033 24.9691C29.7686 24.9808 29.1264 24.5832 29.1438 23.6969C29.1587 22.8783 29.776 22.4971 30.6587 22.5018C33.1777 22.5135 35.6967 22.5088 38.2157 22.5112C39.0785 22.5112 39.6909 22.8433 39.7008 23.7156C39.7107 24.5739 39.1355 24.9574 38.2603 24.9621ZM38.2603 19.9457C36.981 19.9527 35.7016 19.948 34.4198 19.948C33.1802 19.948 31.943 19.9387 30.7033 19.9527C29.7686 19.9644 29.1264 19.5668 29.1438 18.6805C29.1587 17.862 29.776 17.4808 30.6587 17.4855C33.1777 17.4971 35.6967 17.4925 38.2157 17.4948C39.0785 17.4948 39.6909 17.8269 39.7008 18.6992C39.7107 19.5575 39.1355 19.941 38.2603 19.9457ZM39.7008 13.8068C39.6388 14.5762 39.1058 14.9691 38.2876 14.9761C37.0107 14.9855 35.7364 14.9784 34.4595 14.9784C33.1826 14.9784 31.9083 14.9714 30.6314 14.9808C29.7413 14.9878 29.1686 14.5645 29.1413 13.76C29.1116 12.9391 29.714 12.4667 30.562 12.4574C33.1554 12.4293 35.7487 12.4246 38.3397 12.4714C39.1678 12.4855 39.7702 12.9415 39.7008 13.8068Z" fill="#FBFCFE"/>
<path d="M15.3517 33.1282C14.412 33.9981 13.4475 34.8471 12.3244 35.855C11.8186 35.3335 11.4219 34.8845 10.9831 34.4752C10.3607 33.8976 9.64422 33.8017 9.02438 34.4191C8.41695 35.0248 8.51612 35.7053 9.131 36.283C9.8624 36.9682 10.626 37.623 11.3698 38.2989C12.1012 38.963 12.8128 38.942 13.5343 38.2802C14.7467 37.167 15.9591 36.0538 17.1864 34.9546C17.8607 34.3489 18.25 33.6894 17.4938 32.9457C16.75 32.2138 16.026 32.5037 15.3517 33.1282Z" fill="#FBFCFE"/>
</g>
<defs>
<clipPath id="clip0_68_1661">
<rect width="45" height="45" fill="white"/>
</clipPath>
</defs>
</svg>
