<svg width="45" height="45" viewBox="0 0 45 45" fill="none" xmlns="http://www.w3.org/2000/svg">
<path fill-rule="evenodd" clip-rule="evenodd" d="M16.8459 28.2421C16.8459 25.1278 14.3121 22.5938 11.1975 22.5938C8.08289 22.5938 5.54883 25.1278 5.54883 28.2421C5.54883 31.3567 8.08289 33.8908 11.1975 33.8908C14.3121 33.8908 16.8459 31.3567 16.8459 28.2421Z" fill="#FBFCFE"/>
<path fill-rule="evenodd" clip-rule="evenodd" d="M11.1971 33.8907C5.78979 33.8907 1.40625 38.2743 1.40625 43.6816C1.40625 44.4098 1.99642 45 2.72461 45H19.67C20.3982 45 20.9883 44.4098 20.9883 43.6816C20.9883 38.2743 16.6048 33.8907 11.1971 33.8907Z" fill="#FBFCFE"/>
<path fill-rule="evenodd" clip-rule="evenodd" d="M33.7911 22.5938C30.6765 22.5938 28.1425 25.1278 28.1425 28.2421C28.1425 31.3567 30.6765 33.8908 33.7911 33.8908C36.9058 33.8908 39.4395 31.3567 39.4395 28.2421C39.4395 25.1278 36.9058 22.5938 33.7911 22.5938Z" fill="#FBFCFE"/>
<path fill-rule="evenodd" clip-rule="evenodd" d="M33.7912 33.8907C28.3839 33.8907 24 38.2743 24 43.6816C24 44.4098 24.5905 45 25.3184 45H42.2637C42.9919 45 43.5821 44.4098 43.5821 43.6816C43.5821 38.2743 39.1986 33.8907 33.7912 33.8907Z" fill="#FBFCFE"/>
<path fill-rule="evenodd" clip-rule="evenodd" d="M33.7912 19.5821C36.0753 19.5821 37.9337 17.7237 37.9337 15.4396V4.14253C37.9337 1.83437 36.0609 0 33.7912 0H11.1974C8.88757 0 7.05457 1.8742 7.05457 4.14253V15.4396C7.05457 17.7237 8.91297 19.5821 11.1974 19.5821H17.8088L21.3152 26.5945C21.5383 27.0411 21.9949 27.3233 22.4941 27.3233C22.9937 27.3233 23.4499 27.0411 23.6734 26.5945L27.1795 19.5821H33.7912ZM25.3183 5.64835C26.0462 5.64835 26.6367 6.2392 26.6367 6.96671C26.6367 7.69455 26.0462 8.28506 25.3183 8.28506C24.5908 8.28506 23.9999 7.69455 23.9999 6.96671C23.9999 6.2392 24.5908 5.64835 25.3183 5.64835ZM19.67 5.64835C20.3978 5.64835 20.9883 6.2392 20.9883 6.96671C20.9883 7.69455 20.3978 8.28506 19.67 8.28506C18.9421 8.28506 18.3516 7.69455 18.3516 6.96671C18.3516 6.2392 18.9421 5.64835 19.67 5.64835ZM22.4941 14.6396C20.4229 14.6396 18.4446 13.6505 17.2028 11.994C16.7661 11.4114 16.8846 10.585 17.4672 10.1483C18.0498 9.71157 18.8762 9.82967 19.3126 10.4123C20.0593 11.4083 21.2486 12.0029 22.4941 12.0029C23.7397 12.0029 24.929 11.4083 25.6757 10.4123C26.1124 9.82967 26.9388 9.71123 27.5214 10.1483C28.104 10.585 28.2221 11.4114 27.7854 11.994C26.5436 13.6505 24.5654 14.6396 22.4941 14.6396Z" fill="#FBFCFE"/>
</svg>
