<svg width="21" height="22" viewBox="0 0 21 22" fill="none" xmlns="http://www.w3.org/2000/svg">
<path d="M10.5044 13.0228L2.64805 5.16671C2.43224 4.95039 2.14371 4.83139 1.83605 4.83139C1.52822 4.83139 1.23985 4.95039 1.02371 5.16671L0.335659 5.8551C0.119171 6.07108 0 6.35978 0 6.66744C0 6.9751 0.119171 7.26346 0.335659 7.47961L9.68937 16.8335C9.90619 17.0505 10.1959 17.1693 10.5039 17.1685C10.8133 17.1693 11.1027 17.0506 11.3197 16.8335L20.6643 7.48832C20.8808 7.27217 21 6.98381 21 6.67598C21 6.36832 20.8808 6.07995 20.6643 5.86364L19.9763 5.17542C19.5285 4.72759 18.7994 4.72759 18.3518 5.17542L10.5044 13.0228Z" fill="#FBFCFE"/>
</svg>
