<svg width="13" height="12" viewBox="0 0 13 12" fill="none" xmlns="http://www.w3.org/2000/svg">
<path fill-rule="evenodd" clip-rule="evenodd" d="M4.72738 1.24002C4.20131 0.959896 3.59444 0.870686 3.01001 0.987571C2.42559 1.10446 1.89971 1.42022 1.52185 1.88113C1.144 2.34204 0.9375 2.91963 0.9375 3.51563C0.9375 5.29207 2.26029 6.98762 3.71201 8.29416C4.4237 8.93468 5.13752 9.45598 5.6744 9.81748C5.94239 9.99793 6.16517 10.1378 6.32004 10.2321C6.32276 10.2337 6.32545 10.2353 6.32812 10.237C6.3308 10.2353 6.33349 10.2337 6.33621 10.2321C6.49108 10.1378 6.71386 9.99793 6.98185 9.81748C7.51873 9.45598 8.23255 8.93468 8.94424 8.29416C10.396 6.98762 11.7188 5.29207 11.7188 3.51563C11.7188 2.91963 11.5123 2.34204 11.1344 1.88113C10.7565 1.42022 10.2307 1.10446 9.64624 0.987571C9.06181 0.870686 8.45494 0.959896 7.92887 1.24002C7.40281 1.52015 6.99005 1.97389 6.76082 2.52404L6.32812 2.34376L5.89543 2.52404C5.6662 1.97389 5.25344 1.52015 4.72738 1.24002ZM6.32812 1.40625C6.02101 0.996777 5.626 0.656405 5.16801 0.41253C4.45065 0.0305378 3.6231 -0.0911123 2.82615 0.0682765C2.02921 0.227665 1.3121 0.658247 0.796844 1.28676C0.281584 1.91528 0 2.7029 0 3.51563C0 5.72357 1.60689 7.66083 3.08486 8.991C3.83802 9.66885 4.58904 10.2169 5.15079 10.5951C5.43212 10.7846 5.66711 10.9322 5.83267 11.0329C5.91547 11.0833 5.98099 11.122 6.02633 11.1484C6.04901 11.1617 6.06665 11.1718 6.07889 11.1788L6.09317 11.1869L6.09719 11.1892L6.09841 11.1899L6.09882 11.1901C6.09897 11.1902 6.09909 11.1902 6.32812 10.7813L6.09909 11.1902C6.24138 11.2699 6.41487 11.2699 6.55716 11.1902L6.32812 10.7813C6.55716 11.1902 6.55728 11.1902 6.55743 11.1901L6.55784 11.1899L6.55906 11.1892L6.56308 11.1869L6.57736 11.1788C6.5896 11.1718 6.60724 11.1617 6.62992 11.1484C6.67526 11.122 6.74078 11.0833 6.82358 11.0329C6.98914 10.9322 7.22413 10.7846 7.50546 10.5951C8.06721 10.2169 8.81823 9.66885 9.57139 8.991C11.0494 7.66083 12.6562 5.72357 12.6562 3.51563C12.6562 2.7029 12.3747 1.91528 11.8594 1.28676C11.3441 0.658247 10.627 0.227665 9.8301 0.0682765C9.03315 -0.0911123 8.2056 0.0305377 7.48824 0.41253C7.03025 0.656405 6.63524 0.996777 6.32812 1.40625Z" fill="#140A4C"/>
</svg>
