<svg width="20" height="20" viewBox="0 0 18 18" fill="none" xmlns="http://www.w3.org/2000/svg">
<path d="M13.5323 3.47705C12.9775 3.47705 12.5283 3.92619 12.5283 4.48101C12.5283 5.03584 12.9775 5.48498 13.5323 5.48498C14.0871 5.48498 14.5362 5.03584 14.5362 4.48101C14.5362 3.92619 14.0871 3.47705 13.5323 3.47705Z" fill="#98a2b7"/>
<path d="M9.06992 4.76367C6.74495 4.76367 4.85327 6.65535 4.85327 8.98032C4.85327 11.3053 6.74495 13.197 9.06992 13.197C11.3949 13.197 13.2866 11.3053 13.2866 8.98032C13.2866 6.65535 11.3949 4.76367 9.06992 4.76367ZM9.06992 11.6804C7.57982 11.6804 6.36978 10.4678 6.36978 8.98032C6.36978 7.49022 7.58247 6.28018 9.06992 6.28018C10.5574 6.28018 11.77 7.49287 11.77 8.98032C11.77 10.4704 10.56 11.6804 9.06992 11.6804Z" fill="#98a2b7"/>
<path d="M12.4173 17.5403H5.58247C2.74759 17.5403 0.438477 15.2339 0.438477 12.3963V5.56147C0.438477 2.72659 2.74495 0.41748 5.58247 0.41748H12.42C15.2549 0.41748 17.564 2.72395 17.564 5.56147V12.399C17.5613 15.2339 15.2549 17.5403 12.4173 17.5403ZM5.58247 2.0291C3.63531 2.0291 2.0501 3.61431 2.0501 5.56147V12.399C2.0501 14.3461 3.63531 15.9314 5.58247 15.9314H12.42C14.3671 15.9314 15.9523 14.3461 15.9523 12.399V5.56147C15.9523 3.61431 14.3671 2.0291 12.42 2.0291H5.58247Z" fill="#98a2b7"/>
</svg>
