<svg width="37" height="28" viewBox="0 0 37 28" fill="none" xmlns="http://www.w3.org/2000/svg">
<path d="M33.917 5.96929L33.8994 5.97399C33.2642 6.12621 32.8876 6.70839 33.0583 7.27487L33.185 7.64364C33.2149 7.72994 33.1005 7.79742 33.0231 7.74093L32.7239 7.52124C32.6606 7.47416 32.599 7.42552 32.5374 7.37687C32.1344 7.06146 31.6117 6.84962 31.1472 6.74134L31.1401 6.73977C30.6439 6.61266 30.0842 6.62208 29.4806 6.76645C29.1463 6.84648 28.8348 6.95318 28.5532 7.085L28.2435 7.23093L26.6421 1.90032C26.4415 1.23497 25.6743 0.839529 24.9281 1.01842L17.0267 2.90461L17.0954 2.62059C17.127 2.48563 17.1429 2.34597 17.1393 2.20474C17.1341 2.01801 17.1024 1.82343 17.0426 1.6257C16.8525 0.994881 16.4847 0.549225 15.9198 0.265197C15.3514 -0.0203998 14.7197 -0.0753222 13.9893 0.10043C13.7342 0.161629 13.5054 0.24009 13.3066 0.335812C13.1095 0.429964 12.9317 0.542948 12.7786 0.668485C12.6273 0.792453 12.4953 0.938389 12.388 1.10316C12.0518 1.59432 11.9814 2.13884 12.1715 2.7728C12.2208 2.936 12.2964 3.10547 12.3985 3.27809C12.4918 3.4099 12.6026 3.54014 12.7294 3.66882L12.9405 3.88223L5.00394 5.77627C4.2578 5.95516 3.81433 6.63934 4.01495 7.30469L7.05584 17.4261C7.01536 17.5046 6.97137 17.5815 6.92209 17.6568C6.76899 17.8906 6.57718 18.1024 6.34665 18.2798C6.1126 18.4508 5.85039 18.5701 5.56355 18.6391C4.95467 18.785 4.42849 18.7286 3.98327 18.4712C3.53101 18.2264 3.21953 17.8216 3.05059 17.2598C2.87461 16.6729 2.85878 16.1896 3.04179 15.7502C3.14914 15.496 3.35327 15.1759 3.60316 15.1005C3.78442 15.0472 3.99031 15.0205 4.18389 15.0299C4.90891 15.0676 4.78397 14.2751 4.59743 13.8781C4.49009 13.6474 4.16629 13.2567 3.81961 13.1265C3.64187 13.059 3.10866 12.979 2.55257 13.2002C1.42104 13.6506 0.968777 14.2171 0.548191 14.8448C-0.0554116 15.7471 -0.14516 16.7969 0.203275 17.9549C0.3247 18.3567 0.48132 18.7176 0.671375 19.0361C0.863191 19.3547 1.08844 19.6387 1.34713 19.8882C1.60582 20.1377 1.90498 20.3527 2.24461 20.5316C3.24065 21.073 4.37394 21.1922 5.64626 20.8878C5.98414 20.8078 6.32729 20.6838 6.67925 20.5159C6.91858 20.3809 7.15263 20.2287 7.37788 20.0577C7.52922 19.9431 7.63304 19.805 7.72631 19.6575L9.3541 25.0729C9.55472 25.7382 10.322 26.1337 11.0681 25.9548L19.0293 24.0529L18.9343 24.4515C18.9026 24.5864 18.8868 24.7261 18.8903 24.8673C18.8956 25.0541 18.9273 25.2486 18.9871 25.4464C19.1772 26.0772 19.545 26.5228 20.1098 26.8069C20.6783 27.0925 21.31 27.1474 22.0386 26.9716C22.2937 26.9104 22.5225 26.832 22.7213 26.7363C22.9184 26.6421 23.0962 26.5291 23.2493 26.4036C23.4006 26.2796 23.5326 26.1337 23.64 25.9689C23.9761 25.4777 24.0465 24.9332 23.8564 24.2993C23.8071 24.1361 23.7315 23.9666 23.6294 23.794C23.5361 23.6622 23.4253 23.5319 23.2986 23.4032L23.0012 23.102L30.9941 21.1922C31.7402 21.0133 32.1837 20.3292 31.983 19.6638L30.526 14.8134L30.8656 14.793C31.119 14.7773 31.3812 14.738 31.6469 14.6753C32.2716 14.5262 32.7873 14.2783 33.1797 13.9362C33.5739 13.5925 33.8396 13.1751 34.1898 12.6369L34.4115 12.2854C34.4538 12.2179 34.5682 12.2304 34.591 12.3058L34.6491 12.4988C34.818 13.0637 35.4604 13.4293 36.0956 13.2881C36.7432 13.1453 37.1304 12.5553 36.9597 11.9825L35.3777 6.71623C35.2052 6.15445 34.5523 5.81707 33.917 5.96929ZM12.4619 9.47805C12.6783 9.03867 13.0971 8.71384 13.6163 8.58987C14.1354 8.46591 14.6968 8.54123 15.1138 8.84409C15.3285 9.00101 15.3673 9.3886 15.2617 9.51414C15.2177 9.56749 15.1561 9.60358 15.0892 9.61928C14.9995 9.64124 14.8992 9.62712 14.8182 9.57377C14.5419 9.39174 14.1935 9.33211 13.8626 9.41214C13.5318 9.4906 13.2626 9.69774 13.1253 9.97863C13.0549 10.1214 12.8684 10.1873 12.7082 10.1246C12.5481 10.0634 12.3369 9.73226 12.4619 9.47805ZM22.482 12.6761C22.7337 13.5156 22.8463 14.1433 22.8199 14.5592C22.7865 14.9938 22.6386 15.4128 22.3764 15.8192C22.1301 16.221 21.7517 16.5709 21.2414 16.8706C20.7557 17.1578 20.1398 17.3916 19.3883 17.5705C18.644 17.7478 17.9858 17.82 17.4156 17.7839C16.8314 17.7572 16.2964 17.6254 15.8107 17.3885C15.3673 17.1719 15.01 16.8785 14.7408 16.5066C14.4803 16.1629 14.2216 15.565 13.9647 14.7114L13.208 12.1959C13.0021 11.5133 13.4579 10.8119 14.2234 10.6283C14.9889 10.4447 15.7755 10.8511 15.9814 11.5337L16.7874 14.2171C16.9722 14.8322 17.2221 15.2465 17.5353 15.4567C17.8327 15.6874 18.241 15.7408 18.7636 15.6152C19.281 15.4913 19.6101 15.2669 19.7544 14.942C19.8987 14.6172 19.8776 14.1433 19.691 13.5235L18.885 10.8401C18.6791 10.1575 19.1349 9.45608 19.9004 9.27248L19.9655 9.25679C20.731 9.07319 21.5177 9.47962 21.7236 10.1622L22.482 12.6761ZM21.0021 8.14422C20.9581 8.19757 20.8965 8.23366 20.8296 8.24935C20.7398 8.27132 20.6395 8.2572 20.5586 8.20385C20.2823 8.02182 19.9339 7.96219 19.603 8.04222L19.5379 8.05791C19.2071 8.13637 18.9378 8.34351 18.8006 8.6244C18.7302 8.76719 18.5436 8.8331 18.3835 8.77033C18.2234 8.70756 18.0403 8.38744 18.1371 8.12382C18.3026 7.66718 18.7724 7.35961 19.2915 7.23564L19.3567 7.21995C19.8758 7.09598 20.409 7.20426 20.8542 7.47416C21.1182 7.63422 21.1059 8.01868 21.0021 8.14422ZM33.0864 11.5227C32.8418 11.9245 32.43 12.1944 31.8511 12.3324C31.2668 12.4721 30.7635 12.4203 30.3394 12.1787C29.8977 11.9354 29.5933 11.529 29.4208 10.961C29.2519 10.396 29.2871 9.90644 29.5299 9.48903C29.764 9.08418 30.1722 8.8127 30.7512 8.67461C31.3302 8.53652 31.8423 8.59301 32.2857 8.84565C32.7186 9.08104 33.0213 9.48432 33.1938 10.0587C33.368 10.633 33.331 11.121 33.0864 11.5227Z" fill="#FBFCFE"/>
</svg>
