<svg width="192" height="80" viewBox="0 0 192 80" fill="none" xmlns="http://www.w3.org/2000/svg">
<g id="Color=Invertido, &#195;&#141;cono=False" clip-path="url(#clip0)">
<g id="Group">
<path id="Vector" d="M187.923 4.96109L191.509 18.1182C191.986 19.8652 190.953 21.6666 189.206 22.1431C187.459 22.6195 185.658 21.5872 185.182 19.8401C184.638 21.4409 183.89 22.7073 182.937 23.6435C181.984 24.5797 180.755 25.2526 179.255 25.6622C176.647 26.3727 174.315 25.9882 172.254 24.5045C171.239 23.7731 170.361 22.8243 169.617 21.6582C168.873 20.4921 168.284 19.1129 167.849 17.5205C166.98 14.3315 167.105 11.5814 168.229 9.27016C169.354 6.95889 171.281 5.43337 174.018 4.68942C175.481 4.29237 176.827 4.26311 178.051 4.61001C179.284 4.92765 180.459 5.63817 181.575 6.74992L181.562 6.69976C181.086 4.95273 182.118 3.15136 183.865 2.6749L183.898 2.65818C185.645 2.18171 187.447 3.21405 187.923 4.96109ZM183.656 13.178C183.238 11.6358 182.507 10.5533 181.466 9.92635C180.4 9.25344 179.171 9.10298 177.788 9.47914C176.4 9.85529 175.431 10.5909 174.871 11.6817C174.294 12.806 174.21 14.1226 174.624 15.6397C175.042 17.1694 175.778 18.2561 176.839 18.9039C177.855 19.5518 179.067 19.6813 180.463 19.301C181.85 18.9248 182.833 18.1934 183.414 17.1109C183.995 16.0326 184.078 14.7202 183.656 13.178Z" fill="#FBFCFE"/>
<path id="Vector_2" d="M158.566 27.5179L152.301 4.52224C151.783 2.61639 152.907 0.647837 154.813 0.129577C156.719 -0.388682 158.688 0.735606 159.206 2.64146L165.471 25.6371C165.989 27.543 164.865 29.5115 162.959 30.0298C161.053 30.5522 159.085 29.4238 158.566 27.5179Z" fill="#FBFCFE"/>
<path id="Vector_3" d="M152.895 22.8912L138.078 26.9286C138.53 28.4374 139.224 29.4906 140.164 30.0925C141.134 30.7111 142.325 30.8281 143.742 30.4436C144.77 30.1635 145.597 29.7247 146.22 29.127C146.446 28.9013 146.638 28.6673 146.801 28.4165C147.365 27.5513 148.356 27.0665 149.384 27.1836C151.649 27.451 152.569 30.2304 150.918 31.8019C150.868 31.8521 150.813 31.898 150.763 31.9482C149.417 33.1979 147.608 34.1341 145.33 34.7568C141.936 35.6805 138.948 35.4715 136.373 34.1299C133.824 32.8342 132.127 30.64 131.283 27.5388C130.459 24.517 130.794 21.7126 132.286 19.1213C133.786 16.5718 136.114 14.8665 139.265 14.0056C142.48 13.1279 145.297 13.4455 147.712 14.9585C148.949 15.7401 149.986 16.7599 150.826 18.0179C151.666 19.2759 152.326 20.7889 152.811 22.5652L152.895 22.8912ZM145.067 20.8558C144.657 19.8067 143.997 19.0419 143.094 18.5529C142.187 18.068 141.213 17.9677 140.172 18.2519C139.077 18.5487 138.275 19.092 137.757 19.8861C137.234 20.7596 137.042 21.8003 137.176 23.0082L145.067 20.8558Z" fill="#FBFCFE"/>
<path id="Vector_4" d="M116.654 38.9739L113.11 25.9715C112.621 24.1827 113.678 22.3353 115.467 21.8463C117.256 21.3573 119.104 22.4147 119.593 24.2036L119.96 25.5535C120.182 23.6811 120.746 22.1807 121.653 21.0522C122.598 19.8987 123.889 19.0962 125.536 18.6448C125.908 18.5445 126.188 18.4818 126.376 18.4567C126.522 18.4317 126.652 18.4066 126.769 18.3815C126.886 18.3564 127.04 18.3314 127.224 18.3105L128.273 24.7385C127.755 24.7135 127.316 24.7176 126.948 24.7469C126.422 24.8347 126.033 24.9141 125.791 24.981C124.119 25.4365 122.965 26.3017 122.334 27.5806C121.712 28.8428 121.653 30.4101 122.167 32.2909L123.479 37.1141C123.968 38.9029 122.911 40.7502 121.122 41.2392L120.775 41.3354C118.986 41.8202 117.139 40.767 116.654 38.9739Z" fill="#FBFCFE"/>
<path id="Vector_5" d="M105.194 23.4972L105.152 23.5098C103.635 23.9152 102.737 25.4741 103.142 26.9913L103.447 27.9818C103.518 28.2117 103.246 28.3914 103.063 28.241L102.348 27.6517C102.197 27.5263 102.051 27.3925 101.901 27.263C100.935 26.4187 99.6897 25.8503 98.5821 25.5619L98.5654 25.5577C97.3784 25.2192 96.0452 25.2401 94.6032 25.6288C93.805 25.8419 93.061 26.1303 92.3881 26.4814L91.6483 26.8701L87.8241 12.5971C87.3476 10.8124 85.5128 9.75499 83.7323 10.2356L64.8618 15.2928L65.0248 14.5363C65.1001 14.1769 65.1377 13.8008 65.1335 13.4246C65.121 12.9231 65.0416 12.4006 64.9036 11.874C64.4522 10.1855 63.5746 8.99014 62.2204 8.22947C60.862 7.46462 59.3574 7.31833 57.6146 7.78644C57.0085 7.94944 56.4568 8.16259 55.9846 8.41754C55.5165 8.66831 55.0901 8.96924 54.7223 9.30778C54.3629 9.64214 54.0494 10.0308 53.7903 10.4697C52.9879 11.7862 52.8207 13.2449 53.2762 14.9376C53.3933 15.3723 53.5772 15.8278 53.8196 16.2876C54.0411 16.6386 54.3086 16.9897 54.6095 17.3324L55.111 17.905L36.157 22.979C34.3765 23.4554 33.3149 25.2902 33.7955 27.0707L41.0554 54.1706C40.9592 54.3796 40.8547 54.5886 40.7377 54.7892C40.3741 55.4161 39.9144 55.9846 39.3668 56.4568C38.8068 56.9124 38.184 57.2342 37.4944 57.4181C36.0399 57.8068 34.7819 57.6564 33.7203 56.9667C32.6378 56.3106 31.898 55.2281 31.4926 53.7234C31.0705 52.1519 31.0329 50.8563 31.4717 49.6819C31.7267 49.0006 32.2115 48.1438 32.8092 47.9432C33.2439 47.7969 33.737 47.73 34.1968 47.7551C35.9271 47.8554 35.6304 45.7364 35.1831 44.6706C34.924 44.0562 34.1508 43.0072 33.3274 42.6561C32.9053 42.4764 31.6264 42.2632 30.3015 42.8567C27.6015 44.0604 26.519 45.5776 25.5159 47.2577C24.074 49.6735 23.8609 52.4863 24.6926 55.5875C24.981 56.6658 25.3529 57.6313 25.8127 58.4797C26.2724 59.3323 26.8074 60.093 27.426 60.7617C28.0445 61.4305 28.7592 62.003 29.5659 62.4837C31.944 63.934 34.6523 64.2516 37.6909 63.4366C38.4975 63.2193 39.3167 62.8891 40.1568 62.4419C40.7294 62.0825 41.2852 61.6729 41.8244 61.2173C42.188 60.908 42.4346 60.5402 42.6561 60.1432L46.5431 74.6461C47.0195 76.4307 48.8543 77.4881 50.6348 77.0075L69.6432 71.9127L69.4133 72.9784C69.3381 73.3379 69.3005 73.714 69.3047 74.0902C69.3172 74.5917 69.3966 75.1142 69.5345 75.6408C69.9859 77.3293 70.8636 78.5247 72.2178 79.2853C73.5761 80.0502 75.0807 80.1965 76.8236 79.7283C77.4296 79.5653 77.9813 79.3522 78.4536 79.0972C78.9217 78.8465 79.348 78.5455 79.7158 78.207C80.0753 77.8726 80.3887 77.484 80.6479 77.0451C81.4503 75.7286 81.6175 74.2699 81.1619 72.5772C81.0449 72.1425 80.861 71.687 80.6186 71.2272C80.3971 70.8761 80.1296 70.5251 79.8287 70.1823L79.1182 69.3757L98.2018 64.2642C99.9865 63.7877 101.044 61.9529 100.563 60.1724L97.0817 47.1867L97.8925 47.1323C98.4985 47.0906 99.1255 46.9861 99.7607 46.8147C101.253 46.4135 102.482 45.7489 103.418 44.8378C104.362 43.9183 104.993 42.8024 105.829 41.3563L106.36 40.4159C106.465 40.232 106.732 40.2696 106.787 40.4702L106.924 40.9885C107.33 42.5014 108.86 43.4795 110.377 43.1033C111.923 42.7188 112.851 41.1431 112.437 39.6092L108.659 25.5076C108.266 23.9904 106.707 23.0876 105.194 23.4972ZM53.9617 32.8928C54.4758 31.7141 55.4788 30.849 56.716 30.5146C57.9573 30.1844 59.2947 30.3851 60.2895 31.1959C60.8035 31.6138 60.8913 32.6545 60.6447 32.9889C60.5402 33.131 60.3939 33.2271 60.2309 33.2689C60.0178 33.3274 59.7754 33.2898 59.5831 33.1477C58.9228 32.6587 58.091 32.4999 57.3011 32.713C56.5112 32.9262 55.8675 33.4779 55.5415 34.2302C55.3744 34.6147 54.9271 34.7903 54.5468 34.6231C54.1665 34.4559 53.6649 33.574 53.9617 32.8928ZM77.8894 41.4524C78.4912 43.6968 78.7587 45.3811 78.696 46.4971C78.6166 47.659 78.2655 48.7833 77.6386 49.8699C77.0493 50.9441 76.1465 51.8845 74.9261 52.6827C73.7684 53.4518 72.293 54.0787 70.5042 54.5552C68.7237 55.0316 67.1564 55.2239 65.7939 55.1278C64.3979 55.0567 63.119 54.7014 61.9613 54.0662C60.8997 53.4894 60.0512 52.6995 59.4076 51.7047C58.7848 50.7852 58.1705 49.1845 57.5561 46.8983L55.7547 40.1651C55.2657 38.3387 56.3482 36.4579 58.1788 35.9689C60.0053 35.4799 61.886 36.5624 62.375 38.393L64.3018 45.5776C64.7448 47.2243 65.3383 48.3319 66.0906 48.8961C66.797 49.5147 67.775 49.6568 69.0205 49.3224C70.2534 48.9922 71.0433 48.3904 71.3861 47.521C71.7288 46.6517 71.6786 45.3853 71.2356 43.7219L69.3088 36.5373C68.8198 34.7108 69.9023 32.8301 71.733 32.3411L71.8876 32.2993C73.714 31.8103 75.5948 32.8928 76.0838 34.7234L77.8894 41.4524ZM74.3535 29.3193C74.249 29.4614 74.1027 29.5575 73.9439 29.5993C73.7308 29.6578 73.4883 29.6202 73.2961 29.4781C72.6357 28.9891 71.804 28.8303 71.0141 29.0434L70.8594 29.0852C70.0695 29.2984 69.4259 29.8501 69.0999 30.6024C68.9327 30.9869 68.4855 31.1624 68.1051 30.9953C67.7206 30.8281 67.286 29.9713 67.5158 29.2649C67.9087 28.0445 69.033 27.2212 70.2701 26.8868L70.4248 26.845C71.6661 26.5148 72.9367 26.8032 73.9983 27.5263C74.6335 27.9526 74.6043 28.9807 74.3535 29.3193ZM103.209 38.3637C102.624 39.4379 101.642 40.1609 100.262 40.5329C98.8663 40.9049 97.6626 40.7711 96.6512 40.1191C95.598 39.4671 94.8665 38.3805 94.4611 36.8591C94.0557 35.3503 94.1435 34.0338 94.7244 32.9178C95.2845 31.8353 96.2583 31.1081 97.6417 30.7361C99.0252 30.3642 100.246 30.5188 101.303 31.1959C102.335 31.827 103.058 32.9095 103.472 34.4434C103.878 35.9814 103.794 37.2896 103.209 38.3637Z" fill="#FBFCFE"/>
<path id="Vector_6" d="M20.5799 49.9159L24.1158 63.0228C24.5839 64.7657 23.5557 66.5545 21.8129 67.0268C20.07 67.4949 18.2812 66.4668 17.8089 64.7239C17.2614 66.3163 16.5174 67.5743 15.5645 68.5064C14.6158 69.4342 13.3912 70.1029 11.8907 70.5084C9.29107 71.2105 6.97144 70.8176 4.92348 69.3381C3.91622 68.6067 3.0427 67.6579 2.30293 66.5002C1.56316 65.3383 0.978025 63.9632 0.551715 62.375C-0.305084 59.1986 -0.17134 56.461 0.952948 54.1623C2.07724 51.8677 3.99981 50.3506 6.72903 49.615C8.18768 49.2221 9.5293 49.197 10.7455 49.5439C11.9701 49.8616 13.1362 50.5763 14.248 51.6838L14.2354 51.6337C13.7673 49.8908 14.7955 48.102 16.5383 47.6297L16.576 47.6214C18.3188 47.1449 20.1076 48.1731 20.5799 49.9159ZM16.3126 58.0869C15.8989 56.553 15.1758 55.4705 14.1393 54.8436C13.0777 54.1707 11.8573 54.0202 10.478 54.3922C9.09881 54.7641 8.12917 55.4914 7.56911 56.578C6.99234 57.694 6.90875 59.0063 7.31416 60.5151C7.72375 62.0365 8.45517 63.1232 9.5084 63.771C10.5198 64.4188 11.7235 64.5526 13.1153 64.1764C14.4946 63.8044 15.4767 63.0814 16.0577 62.0031C16.6428 60.9289 16.7264 59.6207 16.3126 58.0869Z" fill="#FBFCFE"/>
</g>
</g>
<defs>
<clipPath id="clip0">
<rect width="191.626" height="80" fill="white"/>
</clipPath>
</defs>
</svg>
