<svg width="131" height="30" viewBox="0 0 131 30" fill="none" xmlns="http://www.w3.org/2000/svg">
<path d="M0.549585 3.37168C0.282467 3.65622 0.119873 4.10336 0.119873 4.68405V25.3218C0.119873 25.9025 0.282467 26.3439 0.549585 26.6342L0.619268 26.7039L12.1808 15.1365V14.9971V14.8636L0.619268 3.302L0.549585 3.37168Z" fill="#5BC9F4"/>
<path d="M16.0366 18.9923L12.1808 15.1365V14.9972V14.8636L16.0366 11.0078L16.1237 11.0601L20.6879 13.6558C21.9945 14.3991 21.9945 15.6069 20.6879 16.3502L16.1237 18.9459L16.0366 18.9923Z" fill="url(#paint0_linear)"/>
<path d="M16.1237 18.9458L12.1808 15.0029L0.549561 26.6342C0.979273 27.0871 1.68772 27.1452 2.48907 26.6923L16.1237 18.9458Z" fill="url(#paint1_linear)"/>
<path d="M16.1237 11.06L2.48907 3.31361C1.68772 2.86067 0.979273 2.91293 0.549561 3.37168L12.1808 15.0029L16.1237 11.06Z" fill="url(#paint2_linear)"/>
<path d="M67.4612 16.2904C64.8772 16.2904 62.7648 18.2593 62.7648 20.9664C62.7648 23.6598 64.8703 25.6423 67.4612 25.6423C70.0453 25.6423 72.1577 23.6598 72.1577 20.9664C72.1508 18.2593 70.0453 16.2904 67.4612 16.2904ZM67.4612 23.8034C66.0462 23.8034 64.8225 22.6344 64.8225 20.9664C64.8225 19.2847 66.0462 18.1294 67.4612 18.1294C68.8763 18.1294 70.1 19.2778 70.1 20.9664C70.1 22.6344 68.8763 23.8034 67.4612 23.8034ZM57.2207 16.2904C54.6366 16.2904 52.5243 18.2593 52.5243 20.9664C52.5243 23.6598 54.6298 25.6423 57.2207 25.6423C59.8048 25.6423 61.9171 23.6598 61.9171 20.9664C61.9103 18.2593 59.8048 16.2904 57.2207 16.2904ZM57.2207 23.8034C55.8056 23.8034 54.5819 22.6344 54.5819 20.9664C54.5819 19.2847 55.8056 18.1294 57.2207 18.1294C58.6358 18.1294 59.8594 19.2778 59.8594 20.9664C59.8594 22.6344 58.6358 23.8034 57.2207 23.8034ZM45.0387 17.726V19.7085H49.783C49.6394 20.8228 49.2703 21.6363 48.7029 22.2037C48.0124 22.8942 46.9323 23.653 45.0387 23.653C42.1128 23.653 39.8295 21.2945 39.8295 18.3755C39.8295 15.4564 42.1128 13.098 45.0387 13.098C46.6178 13.098 47.7663 13.7201 48.614 14.513L50.0154 13.1116C48.8259 11.9768 47.2536 11.1086 45.0387 11.1086C41.0327 11.1155 37.6693 14.3763 37.6693 18.3823C37.6693 22.3883 41.0327 25.6423 45.0387 25.6423C47.1989 25.6423 48.8327 24.9313 50.1043 23.6051C51.4168 22.2926 51.8201 20.4537 51.8201 18.9634C51.8201 18.5054 51.786 18.0747 51.7108 17.726H45.0387V17.726ZM94.8537 19.2642C94.464 18.2182 93.2745 16.2904 90.8477 16.2904C88.4414 16.2904 86.4384 18.1841 86.4384 20.9664C86.4384 23.5914 88.4209 25.6423 91.0801 25.6423C93.2267 25.6423 94.464 24.3297 94.9767 23.5709L93.3839 22.5113C92.8507 23.2907 92.126 23.8034 91.0801 23.8034C90.0342 23.8034 89.289 23.3248 88.8105 22.3883L95.0656 19.8042L94.8537 19.2642ZM88.4755 20.8228C88.4209 19.0181 89.877 18.0952 90.9229 18.0952C91.7364 18.0952 92.4268 18.5054 92.6593 19.0864L88.4755 20.8228ZM83.3963 25.362H85.454V11.6145H83.3963V25.362ZM80.0261 17.3364H79.9577C79.4997 16.7895 78.611 16.2904 77.4967 16.2904C75.1587 16.2904 73.0122 18.3481 73.0122 20.9869C73.0122 23.6051 75.1587 25.6423 77.4967 25.6423C78.611 25.6423 79.4997 25.1432 79.9577 24.5827H80.0261V25.2526C80.0261 27.0437 79.069 28.0008 77.5309 28.0008C76.273 28.0008 75.4937 27.0984 75.1724 26.3327L73.3813 27.0779C73.8941 28.3152 75.2613 29.8397 77.524 29.8397C79.9304 29.8397 81.9675 28.4246 81.9675 24.9655V16.5707H80.0192V17.3364H80.0261ZM77.6744 23.8034C76.2594 23.8034 75.0699 22.6139 75.0699 20.9869C75.0699 19.3394 76.2594 18.1362 77.6744 18.1362C79.0758 18.1362 80.1696 19.3394 80.1696 20.9869C80.1696 22.6139 79.069 23.8034 77.6744 23.8034ZM104.479 11.6145H99.5638V25.362H101.615V20.1529H104.479C106.755 20.1529 108.991 18.5054 108.991 15.8871C108.991 13.2689 106.755 11.6145 104.479 11.6145ZM104.534 18.2387H101.615V13.5286H104.534C106.065 13.5286 106.94 14.8002 106.94 15.8871C106.94 16.9467 106.065 18.2387 104.534 18.2387ZM117.215 16.2631C115.731 16.2631 114.193 16.9194 113.557 18.3686L115.376 19.1274C115.765 18.3686 116.49 18.1225 117.249 18.1225C118.308 18.1225 119.389 18.7583 119.409 19.8931V20.0366C119.04 19.8247 118.24 19.5034 117.269 19.5034C115.307 19.5034 113.311 20.5835 113.311 22.6002C113.311 24.4391 114.918 25.6218 116.723 25.6218C118.103 25.6218 118.862 24.9997 119.341 24.2751H119.409V25.3347H121.392V20.064C121.385 17.6303 119.566 16.2631 117.215 16.2631ZM116.962 23.7965C116.292 23.7965 115.355 23.4616 115.355 22.6275C115.355 21.5679 116.524 21.1578 117.529 21.1578C118.432 21.1578 118.855 21.3492 119.402 21.6158C119.245 22.8942 118.151 23.7965 116.962 23.7965ZM128.604 16.5639L126.252 22.525H126.184L123.743 16.5639H121.535L125.192 24.8903L123.107 29.5252H125.247L130.887 16.5639H128.604V16.5639ZM110.119 25.362H112.17V11.6145H110.119V25.362Z" fill="black"/>
<path d="M38.1273 6.57637V0.0888672H39.9594C40.5268 0.0888672 41.0258 0.211918 41.4565 0.464855C41.8872 0.710957 42.2222 1.06644 42.4614 1.53129C42.7007 1.98932 42.8169 2.52254 42.8169 3.11728V3.53429C42.8169 4.14954 42.7007 4.68276 42.4614 5.14078C42.229 5.5988 41.894 5.95428 41.4497 6.20038C41.0122 6.44648 40.5063 6.56953 39.9252 6.57637H38.1273ZM38.9818 0.786154V5.87908H39.8842C40.5405 5.87908 41.06 5.674 41.4223 5.26383C41.7915 4.85366 41.9761 4.27259 41.9761 3.51378V3.13095C41.9761 2.39265 41.8052 1.81841 41.4565 1.40824C41.1079 0.998075 40.6225 0.79299 39.9868 0.786154H38.9818Z" fill="black"/>
<path d="M44.9771 6.57637H44.1226V0.0888672H44.9771V6.57637Z" fill="black"/>
<path d="M48.4431 3.68468C47.7116 3.47276 47.1784 3.21299 46.8434 2.90536C46.5084 2.59774 46.3444 2.22175 46.3444 1.76373C46.3444 1.25101 46.5495 0.827174 46.9596 0.499039C47.363 0.164068 47.8893 0 48.5456 0C48.99 0 49.3865 0.0888699 49.7351 0.259774C50.0837 0.430677 50.3572 0.669942 50.5486 0.970733C50.74 1.27152 50.8357 1.60649 50.8357 1.96197H49.9744C49.9744 1.56548 49.8513 1.25785 49.5984 1.03226C49.3523 0.806665 48.9968 0.697287 48.5456 0.697287C48.1218 0.697287 47.7936 0.792993 47.5612 0.977569C47.3219 1.16214 47.2057 1.42192 47.2057 1.75005C47.2057 2.01666 47.3151 2.23542 47.5407 2.42C47.7663 2.60457 48.1491 2.76864 48.6892 2.91903C49.2292 3.06943 49.6531 3.24033 49.9539 3.41807C50.2615 3.60265 50.4871 3.81457 50.6306 4.06067C50.781 4.30677 50.8494 4.59389 50.8494 4.92203C50.8494 5.44841 50.6443 5.87225 50.2341 6.18671C49.824 6.50118 49.2771 6.65841 48.5866 6.65841C48.1423 6.65841 47.7253 6.57637 47.3356 6.39863C46.9528 6.22773 46.652 5.9953 46.4401 5.69451C46.2282 5.40056 46.1256 5.05875 46.1256 4.68276H46.987C46.987 5.07242 47.1305 5.38688 47.4245 5.61248C47.7184 5.83807 48.1013 5.95428 48.5866 5.95428C49.0378 5.95428 49.3865 5.86541 49.6257 5.68084C49.865 5.49626 49.988 5.24332 49.988 4.92886C49.988 4.6144 49.8787 4.3683 49.6531 4.19056C49.4343 4.02649 49.031 3.85559 48.4431 3.68468Z" fill="black"/>
<path d="M52.8865 4.04016V6.58321H52.0251V0.0888672H54.4178C55.1288 0.0888672 55.6825 0.273443 56.0858 0.635759C56.4891 0.998075 56.6874 1.4766 56.6874 2.07819C56.6874 2.70711 56.4891 3.19248 56.0995 3.53429C55.703 3.87609 55.1424 4.047 54.411 4.047H52.8865V4.04016ZM52.8865 3.33604H54.4246C54.8827 3.33604 55.2313 3.22666 55.4774 3.01474C55.7235 2.79598 55.8397 2.48835 55.8397 2.07819C55.8397 1.68853 55.7167 1.3809 55.4774 1.14847C55.2313 0.916041 54.8963 0.79299 54.4725 0.786154H52.8865V3.33604Z" fill="black"/>
<path d="M62.84 3.54112C62.84 4.17689 62.7306 4.73061 62.5187 5.20231C62.3068 5.674 61.9992 6.03632 61.6095 6.28925C61.2198 6.53536 60.7618 6.66524 60.2354 6.66524C59.7227 6.66524 59.2715 6.54219 58.875 6.28925C58.4785 6.03632 58.1709 5.68084 57.9522 5.21598C57.7334 4.75112 57.624 4.21107 57.6172 3.60265V3.13095C57.6172 2.50887 57.7266 1.95514 57.9453 1.47661C58.1641 0.998077 58.4717 0.628925 58.8682 0.375988C59.2647 0.129887 59.7159 0 60.2286 0C60.7481 0 61.2062 0.123051 61.6027 0.375988C61.9992 0.628925 62.3068 0.991241 62.5187 1.46977C62.7306 1.9483 62.84 2.50203 62.84 3.13095V3.54112ZM61.9855 3.12412C61.9855 2.35163 61.8283 1.76373 61.5206 1.35356C61.213 0.943388 60.7823 0.738304 60.2218 0.738304C59.6817 0.738304 59.2579 0.943388 58.9434 1.35356C58.6358 1.76373 58.4717 2.33796 58.4649 3.06943V3.54796C58.4649 4.2931 58.6221 4.88101 58.9366 5.30485C59.251 5.72869 59.6817 5.94745 60.2286 5.94745C60.7823 5.94745 61.2062 5.7492 61.5138 5.34587C61.8146 4.94253 61.9718 4.3683 61.9787 3.61632V3.12412H61.9855Z" fill="black"/>
<path d="M69.1155 6.57637H68.2542L64.9865 1.57915V6.57637H64.1251V0.0888672H64.9865L68.261 5.11343V0.0888672H69.1155V6.57637Z" fill="black"/>
<path d="M71.5219 6.57637H70.6674V0.0888672H71.5219V6.57637Z" fill="black"/>
<path d="M73.0669 6.57637V0.0888672H75.1861C75.8902 0.0888672 76.4166 0.232426 76.7721 0.526381C77.1276 0.820335 77.3053 1.25101 77.3053 1.81841C77.3053 2.1192 77.2164 2.39265 77.0455 2.62508C76.8746 2.85751 76.6422 3.03525 76.3414 3.16513C76.6901 3.26084 76.9703 3.45225 77.1754 3.7257C77.3805 3.99914 77.483 4.32728 77.483 4.7101C77.483 5.29117 77.2916 5.7492 76.9156 6.08417C76.5397 6.41914 76.0064 6.58321 75.316 6.58321H73.0669V6.57637ZM73.9214 2.85751H75.2134C75.5894 2.85751 75.8902 2.7618 76.109 2.57722C76.3277 2.39265 76.444 2.13288 76.444 1.81158C76.444 1.4561 76.3414 1.19632 76.1295 1.03226C75.9244 0.868188 75.6031 0.786154 75.1793 0.786154H73.9146V2.85751H73.9214ZM73.9214 3.54112V5.87908H75.3365C75.733 5.87908 76.0475 5.77654 76.2799 5.57146C76.5123 5.36637 76.6217 5.07925 76.6217 4.71694C76.6217 3.93762 76.1979 3.54796 75.3502 3.54796H73.9214V3.54112Z" fill="black"/>
<path d="M79.609 5.87908H82.6853V6.57637H78.7477V0.0888672H79.609V5.87908V5.87908Z" fill="black"/>
<path d="M87.3612 3.5753H84.5515V5.87908H87.8192V6.57637H83.697V0.0888672H87.7714V0.786154H84.5515V2.87801H87.3612V3.5753Z" fill="black"/>
<path d="M94.8058 3.5753H91.9961V5.87908H95.2638V6.57637H91.1416V0.0888672H95.2159V0.786154H91.9961V2.87801H94.8058V3.5753Z" fill="black"/>
<path d="M101.3 6.57637H100.439L97.1712 1.57915V6.57637H96.3098V0.0888672H97.1712L100.446 5.11343V0.0888672H101.3V6.57637Z" fill="black"/>
<defs>
<linearGradient id="paint0_linear" x1="19.8417" y1="15.0018" x2="-2.73881" y2="15.0018" gradientUnits="userSpaceOnUse">
<stop stop-color="#FEE000"/>
<stop offset="0.1941" stop-color="#FCCF0B"/>
<stop offset="0.5469" stop-color="#FAB318"/>
<stop offset="0.8279" stop-color="#F9A21B"/>
<stop offset="1" stop-color="#F99B1C"/>
</linearGradient>
<linearGradient id="paint1_linear" x1="13.9818" y1="17.1431" x2="-7.25617" y2="38.3811" gradientUnits="userSpaceOnUse">
<stop stop-color="#EF4547"/>
<stop offset="1" stop-color="#C6186D"/>
</linearGradient>
<linearGradient id="paint2_linear" x1="-7.35081" y1="-8.4731" x2="9.98946" y2="8.86717" gradientUnits="userSpaceOnUse">
<stop stop-color="#279E6F"/>
<stop offset="0.3168" stop-color="#4DAB6D"/>
<stop offset="0.7398" stop-color="#6ABA6A"/>
<stop offset="1" stop-color="#74C169"/>
</linearGradient>
</defs>
</svg>
