<?xml version="1.0" encoding="utf-8"?>
<!-- Generator: Adobe Illustrator 26.5.0, SVG Export Plug-In . SVG Version: 6.00 Build 0)  -->
<svg version="1.1" id="Capa_2_00000097460969092758468790000006530352551646484371_"
	 xmlns="http://www.w3.org/2000/svg" xmlns:xlink="http://www.w3.org/1999/xlink" x="0px" y="0px" viewBox="0 0 410.3 277.3"
	 style="enable-background:new 0 0 410.3 277.3;" xml:space="preserve">
<style type="text/css">
	.st0{fill:#FFFFFF;}
</style>
<g id="Capa_1-2">
	<g>
		<path class="st0" d="M175,17c0-1.2,0-2.5-0.1-3.7C174.1,3.9,164.2-2.6,155.5,1c-2.6,1.1-5,3.2-7.1,5.2
			c-24,23.8-47.8,47.8-71.8,71.6c-1.3,1.3-3.6,2.2-5.4,2.2c-17.7,0.2-35.3,0.3-52.9,0C9.2,79.9,3.1,83.3,0,91.9v93.3
			c3.1,8.6,9.2,12,18.2,11.8c17.5-0.3,35,0,52.6-0.1c2.6,0,4.3,0.7,6.1,2.6c23.7,23.8,47.4,47.5,71.2,71.2c1.2,1.2,2.4,2.5,3.8,3.5
			c4.3,3.2,9.1,3.9,14,1.8c6.8-3,9.2-8.5,9.2-15.8C175,179.1,175,98.1,175,17L175,17z"/>
		<path class="st0" d="M328.9,138.6L406,61.6c5.8-5.8,5.8-15.2,0-21s-15.2-5.8-21,0l-77.1,77.1l-77.1-77.1c-5.8-5.8-15.2-5.8-21,0
			s-5.8,15.2,0,21l77.1,77.1l-77.1,77.1c-5.8,5.8-5.8,15.2,0,21s15.2,5.8,21,0l77-77.1l77,77.1c5.8,5.8,15.2,5.8,21,0s5.8-15.2,0-21
			L328.9,138.6L328.9,138.6z"/>
	</g>
</g>
</svg>
