<?xml version="1.0" encoding="utf-8"?>
<!-- Generator: Adobe Illustrator 26.5.0, SVG Export Plug-In . SVG Version: 6.00 Build 0)  -->
<svg version="1.1" id="Capa_2_00000136394097076654343730000003078806163197300866_"
	 xmlns="http://www.w3.org/2000/svg" xmlns:xlink="http://www.w3.org/1999/xlink" x="0px" y="0px" viewBox="0 0 380 380"
	 style="enable-background:new 0 0 380 380;" xml:space="preserve">
<style type="text/css">
	.st0{fill:#FFFFFF;}
</style>
<g>
	<path class="st0" d="M0.1,143.4c3.1-8.6,9.2-12,18.2-11.8c17.6,0.3,35.3,0.1,52.9,0c1.8,0,4.1-1,5.4-2.2
		c24-23.8,47.9-47.8,71.9-71.6c2.1-2,4.4-4.1,7.1-5.2c8.7-3.6,18.6,2.8,19.4,12.3c0.1,1.2,0.1,2.5,0.1,3.7c0,81.1,0,162.2,0.1,243.2
		c0,7.3-2.4,12.9-9.2,15.8c-4.9,2.1-9.7,1.4-14-1.8c-1.4-1-2.6-2.3-3.8-3.5c-23.7-23.7-47.5-47.5-71.2-71.2
		c-1.8-1.8-3.6-2.6-6.1-2.6c-17.5,0.1-35-0.1-52.6,0.1c-9,0.1-15.2-3.2-18.2-11.8L0.1,143.4L0.1,143.4z"/>
	<path class="st0" d="M379.9,186.1c-2.5,67.9-29.8,117.8-83.5,152.8c-7,4.5-14.7,8.1-22.3,11.6c-7.6,3.6-15.5,0.8-19.4-6.2
		c-3.6-6.6-1.7-13.9,5.1-18.8c1.5-1.1,3.1-2,4.8-2.8c45.8-21.7,73.7-57.6,83.4-107.2c11.4-58.4-17.3-120.7-68.7-150.6
		c-5.2-3-10.7-5.6-16.1-8.3c-7.1-3.6-11.1-9.8-10-16.1c1.6-9.8,11.4-15.2,20.8-11.2c15.8,6.8,30.5,15.7,43.6,27
		c29.3,25.4,49,56.9,57.5,94.8C377.8,163.9,378.6,177.1,379.9,186.1L379.9,186.1z"/>
	<path class="st0" d="M321.4,191.5c-2.9,47.4-24.6,83.8-69.4,105.2c-9.7,4.6-19.6,0-21.8-9.9c-1.2-5.5,1-11.3,5.9-14.5
		c3.6-2.4,7.5-4.3,11.2-6.5c26.6-15.4,41.9-38.5,43.9-69c2.5-37.3-13.5-65.2-46-83.7c-2.6-1.5-5.2-2.8-7.7-4.4
		c-7.2-4.5-9.6-12.2-6.1-19.1c3.7-7.2,11.8-10,19.6-6.6c13.5,5.8,25.6,13.8,35.8,24.4c17.8,18.3,29,40,32.8,65.3
		C320.6,178.6,320.8,184.4,321.4,191.5L321.4,191.5z"/>
	<path class="st0" d="M262.9,189.3c-1.6,25.1-12.2,43.5-34.9,54c-6.9,3.2-14.5,1-18.6-5.2c-3.9-5.8-2.9-13.3,2.7-18.3
		c3-2.7,6.4-5.1,9.9-7.2c15.4-9.3,15.4-35.7,0.1-45.1c-3.7-2.2-7.2-4.8-10.4-7.7c-5.3-4.8-6.1-12.1-2.4-17.8
		c3.8-5.9,11-8.4,17.5-5.7c18.1,7.3,28.8,20.9,33.8,39.3C262,180.3,262.3,185.2,262.9,189.3L262.9,189.3z"/>
</g>
</svg>
